<svg xmlns="http://www.w3.org/2000/svg" width="270" height="151" style="shape-rendering:geometricPrecision;text-rendering:geometricPrecision;image-rendering:optimizeQuality;fill-rule:evenodd;clip-rule:evenodd"><path style="opacity:1" fill="#9d9d9d" d="M79.5-.5h12c-1.418 1.808-3.418 2.475-6 2 .109 2.014-.558 3.68-2 5-.486 2.307-.486 4.473 0 6.5a4.932 4.932 0 0 1-3 .5c.284-1.915-.049-3.581-1-5v-9z"/><path style="opacity:1" fill="#e8e8e8" d="M186.5-.5h45c.567 3.411-.766 5.411-4 6h-5c.219-1.175-.114-2.175-1-3a16.874 16.874 0 0 0-1 8h-2a190.302 190.302 0 0 1-5-5.5c-.937-.692-1.603-.525-2 .5-1.56-.02-3.06-.352-4.5-1-2.634 2.614-5.134 2.447-7.5-.5a50.438 50.438 0 0 0-10-.5c-1.729-.736-2.729-2.07-3-4z"/><path style="opacity:1" fill="#b7b7b7" d="M231.5-.5h20v9h3a29.23 29.23 0 0 1 1-9h2a69.953 69.953 0 0 0-2 21 261.53 261.53 0 0 0-2.5 18 32.462 32.462 0 0 1-.5-8h-3a18.991 18.991 0 0 1-1.5 8 20.088 20.088 0 0 1-1.5-6c1.058-2.272 1.058-4.606 0-7a11.287 11.287 0 0 1 2-6c-.124-.607-.457-.94-1-1v-7c1.195-.366 1.861-1.199 2-2.5-2.071-2.513-2.404-5.18-1-8a4.932 4.932 0 0 0-3-.5c.221 2.779-.112 5.446-1 8h-3c.262-1.478-.071-2.811-1-4a239.461 239.461 0 0 0-3 6c.392 3.222-.108 6.222-1.5 9a32.462 32.462 0 0 1-.5-8h-3a44.87 44.87 0 0 1-1 10v8c-.177 3.484-1.177 6.484-3 9v-10c.986-4.47 1.319-9.137 1-14v-1c-.221-1.235-.888-2.235-2-3 2.547-1.954 2.547-3.621 0-5 3.234-.589 4.567-2.589 4-6z"/><path style="opacity:1" fill="#828282" d="M105.5-.5h7a69.304 69.304 0 0 1-1 16h-1v-9c-1.644.214-3.144-.12-4.5-1a18.452 18.452 0 0 1-.5-6z"/><path style="opacity:1" fill="#8b8b8b" d="M247.5 11.5c-.086-.996.248-1.83 1-2.5a8.435 8.435 0 0 0-4-.5c.888-2.554 1.221-5.221 1-8a4.932 4.932 0 0 1 3 .5c-1.404 2.82-1.071 5.487 1 8-.139 1.301-.805 2.134-2 2.5z"/><path style="opacity:1" fill="#9e9e9e" d="M251.5-.5h4a29.23 29.23 0 0 0-1 9h-3v-9z"/><path style="opacity:1" fill="#414141" d="M32.5-.5h24a13.213 13.213 0 0 0-2 5c-6.037-1.271-11.704-.271-17 3-.558-1.29-1.558-2.123-3-2.5 2.057-.305 4.057-.305 6 0-2.408-2.398-5.075-4.231-8-5.5z"/><path style="opacity:1" fill="#353535" d="M92.5-.5h12c-.948 5.124-1.282 10.124-1 15a24.236 24.236 0 0 1-9.5-4c-.769-2.6-.602-5.1.5-7.5a2.427 2.427 0 0 0-2-.5v-3z"/><path style="opacity:1" fill="#2e2e2e" d="M73.5-.5h6v11c-2.657.338-4.99-.329-7-2a6.806 6.806 0 0 1 3-1.5 4.453 4.453 0 0 1-2-1.5c.42-1.826.42-3.826 0-6z"/><path style="opacity:1" fill="#919191" d="M148.5-.5h9c-.821 3.054-.821 6.053 0 9a21.128 21.128 0 0 0 1-9h2c-.104 2.59.563 4.923 2 7-2.667 4.333-2.667 8.667 0 13-1.767 2.39-2.434 4.723-2 7a246.792 246.792 0 0 0-2 7c-2.6-2.96-3.934-6.46-4-10.5 1.152-3.85 1.152-7.683 0-11.5l-2-1c-1.198 4.011-1.198 8.012 0 12v2h-1c-.041-2.245-.875-2.912-2.5-2l-1-15c-1.699-.906-3.533-1.24-5.5-1a18.452 18.452 0 0 1 .5-6l1 4c1.356-.88 2.856-1.214 4.5-1v-4z"/><path style="opacity:1" fill="#6c6c6c" d="M157.5-.5h1a21.128 21.128 0 0 1-1 9c-.821-2.947-.821-5.947 0-9z"/><path style="opacity:1" fill="#b4b4b4" d="M174.5-.5h7a75.462 75.462 0 0 1-1 16 5.577 5.577 0 0 1-3-1 52.141 52.141 0 0 0-1.5 10 319.364 319.364 0 0 1-1.5-23v-2z"/><path style="opacity:1" fill="#313131" d="M4.5-.5h28c2.925 1.269 5.592 3.102 8 5.5-1.943-.305-3.943-.305-6 0 1.442.377 2.442 1.21 3 2.5-1.574.437-2.741 1.437-3.5 3-.535-1.77-1.369-2.104-2.5-1 1.13 1.122 1.797 2.456 2 4-1.478.262-2.811-.071-4-1 .14-1.755-.36-3.422-1.5-5-.837 1.85-1.67 3.684-2.5 5.5-2.599 2.044-4.599 1.71-6-1-.667-.667-1.333-.667-2 0 1.798 3.156 4.298 3.99 7.5 2.5a32.367 32.367 0 0 1 4.5 3c-2.436 3.512-5.103 3.512-8 0l-3 1.5c.958 1.148.625 2.148-1 3a7.253 7.253 0 0 1 2 2.5c-1.576.946-3.242.946-5 0-1.66.672-2.993 1.672-4 3h-2c-.952-2.11-2.62-3.277-5-3.5 1.196-.654 1.196-1.154 0-1.5a6.845 6.845 0 0 1-4 1v-18c1.637-1.975 3.304-3.975 5-6z"/><path style="opacity:1" fill="#4a4a4a" d="M68.5-.5h5c.42 2.174.42 4.174 0 6a4.453 4.453 0 0 0 2 1.5 6.806 6.806 0 0 0-3 1.5c2.01 1.671 4.343 2.338 7 2-1.67 1.508-3.504 1.841-5.5 1a4.932 4.932 0 0 0-.5 3c-1.309 2.277-2.309 5.277-3 9v-16a21.034 21.034 0 0 1-7-2c-.886-.825-1.219-1.825-1-3a8.434 8.434 0 0 1 4 .5l-2 1c4.876 2.216 6.21.716 4-4.5z"/><path style="opacity:1" fill="#454545" d="M127.5 5.5v15a18.437 18.437 0 0 1-6-.5 14.436 14.436 0 0 1-1-5c1.017-4.404 1.017-8.737 0-13 2.053-.325 4.053.009 6 1 .752.67 1.086 1.504 1 2.5z"/><path style="opacity:1" fill="#7d7d7d" d="M137.5-.5h11v4c-1.644-.214-3.144.12-4.5 1l-1-4a18.452 18.452 0 0 0-.5 6c1.967-.24 3.801.094 5.5 1l1 15c1.625-.912 2.459-.245 2.5 2a51.239 51.239 0 0 1-2.5 4c-.21-1.558-.71-2.892-1.5-4-1.949-1.225-3.282-.558-4 2-.512-2.35-1.512-4.35-3-6a74.091 74.091 0 0 1-1.5-12c-.186 2.536-.686 4.869-1.5 7-.427-3.288.24-6.288 2-9-1.446-2.118-2.113-4.451-2-7z"/><path style="opacity:1" fill="#6c6c6c" d="M227.5 5.5c2.547 1.379 2.547 3.046 0 5 1.112.765 1.779 1.765 2 3a30.827 30.827 0 0 1-9-3 16.874 16.874 0 0 1 1-8c.886.825 1.219 1.825 1 3h5z"/><path style="opacity:1" fill="#515151" d="M244.5 8.5a8.435 8.435 0 0 1 4 .5c-.752.67-1.086 1.504-1 2.5v1c-1.992.171-3.658-.495-5-2-1.745 2.592-3.411 2.592-5 0a239.461 239.461 0 0 1 3-6c.929 1.189 1.262 2.522 1 4h3z"/><path style="opacity:1" fill="#545454" d="M104.5-.5h1a18.452 18.452 0 0 0 .5 6c1.356.88 2.856 1.214 4.5 1v9a21.445 21.445 0 0 1-7-1c-.282-4.876.052-9.876 1-15z"/><path style="opacity:1" fill="#757575" d="M123.5 4.5a96.64 96.64 0 0 1 2 6.5c-.848 2.67-1.181 5.17-1 7.5a49.87 49.87 0 0 1-1-14z"/><path style="opacity:1" fill="#767676" d="M181.5-.5h5c.271 1.93 1.271 3.264 3 4-.284 1.915.049 3.581 1 5-.074 7.52-1.241 7.854-3.5 1l-2 2-.5 7.5c.068 2.95.734 5.617 2 8-3.38 4.826-2.047 6.993 4 6.5-1.765.961-3.765 1.295-6 1v4c6.522-.324 12.855.01 19 1h-18c-.315 3.871.018 7.538 1 11-.709.904-1.709 1.237-3 1-.532-5.297-1.366-5.297-2.5 0-1.485-3.78-1.652-7.447-.5-11v6h3a133.289 133.289 0 0 0-1.5-24c-.232 1.238-.732 2.238-1.5 3v-10a75.462 75.462 0 0 0 1-16z"/><path style="opacity:1" fill="#242424" d="M92.5 2.5a2.427 2.427 0 0 1 2 .5c-1.102 2.4-1.269 4.9-.5 7.5a24.236 24.236 0 0 0 9.5 4 21.445 21.445 0 0 0 7 1h1c1.724-.04 2.057.294 1 1-1.333 0-2 .667-2 2h-2c-.689-1.274-1.523-1.274-2.5 0a20.641 20.641 0 0 0-2 6c-2.481-5.92-6.48-7.587-12-5-.708-.88-1.542-1.547-2.5-2-1.472-2.755-.805-4.922 2-6.5-1.814-2.481-2.48-5.315-2-8.5h3z"/><path style="opacity:1" fill="#3f3f3f" d="M112.5-.5h4a96.252 96.252 0 0 1 1 19h-4a4.934 4.934 0 0 1-.5 3 12.93 12.93 0 0 1-.5-5c1.057-.706.724-1.04-1-1a69.304 69.304 0 0 0 1-16z"/><path style="opacity:1" fill="#777" d="M54.5 4.5c6.336 2.181 10.836 6.181 13.5 12l-2-2c-2.263 1.089-4.096.422-5.5-2a4.452 4.452 0 0 1 2-1.5c-1.5-.833-2.667-2-3.5-3.5-.414.457-.914.79-1.5 1a292.157 292.157 0 0 0-6-3l-2 .5c.916.278 1.583.778 2 1.5-.958.453-1.792 1.12-2.5 2-1.049-1.607-2.549-2.273-4.5-2-.897 1.098-1.73 1.098-2.5 0a176.17 176.17 0 0 1-3.5 10c-1.84.902-3.174 2.236-4 4h-2c.613-2.51 1.28-5.01 2-7.5-.228-.399-.562-.565-1-.5-.203-1.544-.87-2.878-2-4 1.131-1.104 1.965-.77 2.5 1 .759-1.563 1.926-2.563 3.5-3 5.296-3.271 10.963-4.271 17-3z"/><path style="opacity:1" fill="#4e4e4e" d="M218.5 10.5h2a30.827 30.827 0 0 0 9 3v1c-.722.418-1.222 1.084-1.5 2a4.458 4.458 0 0 0-1.5-2c-1.542 1.247-3.042 1.247-4.5 0-.49 2.045-.323 4.045.5 6-.438-.065-.772.101-1 .5 1.957 1.746 2.957 3.912 3 6.5h-3c-.02 1.643.647 2.976 2 4-.825.886-1.825 1.219-3 1v-20c-1.322.17-2.489-.163-3.5-1a34.112 34.112 0 0 0-3 6c-.77 1.098-1.603 1.098-2.5 0 .219-1.175-.114-2.175-1-3-2.365 4.255-3.365 3.921-3-1 1.831-.552 3.497-.552 5 0 1.451-2.059 3.451-3.059 6-3z"/><path style="opacity:1" fill="#5a5a5a" d="M91.5-.5h1v3h-3c-.48 3.185.186 6.019 2 8.5-2.805 1.578-3.472 3.745-2 6.5-2.198-.091-2.531.576-1 2a471.119 471.119 0 0 0-2 9l-4-10c1.812-2.115 2.812-4.615 3-7.5-.069-1.986-.735-3.486-2-4.5 1.442-1.32 2.109-2.986 2-5 2.582.475 4.582-.192 6-2z"/><path style="opacity:1" fill="#707070" d="M250.5 10.5h3v8h-3v-8z"/><path style="opacity:1" fill="#838383" d="M83.5 6.5c1.265 1.014 1.931 2.514 2 4.5-.188 2.885-1.188 5.385-3 7.5-1.657-3.71-4.323-5.043-8-4h-1a4.932 4.932 0 0 1 .5-3c1.996.841 3.83.508 5.5-1v-2c.951 1.419 1.284 3.085 1 5a4.932 4.932 0 0 0 3-.5c-.486-2.027-.486-4.193 0-6.5z"/><path style="opacity:1" fill="#606060" d="M257.5-.5h6c1.975 1.637 3.975 3.304 6 5v39a2.427 2.427 0 0 1-2-.5c1.333-1.84 1.166-2.34-.5-1.5a50.464 50.464 0 0 1-.5-10 76.132 76.132 0 0 0 1-21 73.732 73.732 0 0 0-5.5 11c-.957-2.21-2.124-2.043-3.5.5 1.211.893 1.211 1.726 0 2.5-.925 1.14-1.759 1.14-2.5 0a8.43 8.43 0 0 1-.5-4 69.953 69.953 0 0 1 2-21z"/><path style="opacity:1" fill="#323232" d="M56.5-.5h12c2.21 5.216.876 6.716-4 4.5l2-1a8.434 8.434 0 0 0-4-.5c-.219 1.175.114 2.175 1 3a21.034 21.034 0 0 0 7 2v22a38.496 38.496 0 0 0-4-6c-.684-1.685-2.017-2.685-4-3a26.538 26.538 0 0 0-7 5c-1.09-1.617-2.756-2.45-5-2.5 1.017-1.05 1.184-2.216.5-3.5-3.582 1.917-7.415 2.084-11.5.5-.752-.67-1.086-1.504-1-2.5a176.17 176.17 0 0 0 3.5-10c.77 1.098 1.603 1.098 2.5 0 1.427 2.4.927 3.067-1.5 2a8.434 8.434 0 0 0-.5 4c5.173 1.15 8.173-.85 9-6-.417-.722-1.084-1.222-2-1.5l2-.5c1.977.96 3.977 1.96 6 3a3.646 3.646 0 0 0 1.5-1c.833 1.5 2 2.667 3.5 3.5a4.452 4.452 0 0 0-2 1.5c1.404 2.422 3.237 3.089 5.5 2l2 2c-2.664-5.819-7.164-9.819-13.5-12 .33-1.822.998-3.49 2-5z"/><path style="opacity:1" fill="#555" d="M44.5 7.5c1.951-.273 3.451.393 4.5 2 .708-.88 1.542-1.547 2.5-2-.827 5.15-3.827 7.15-9 6a8.434 8.434 0 0 1 .5-4c2.427 1.067 2.927.4 1.5-2z"/><path style="opacity:1" fill="#969696" d="M237.5 10.5c1.589 2.592 3.255 2.592 5 0 1.342 1.505 3.008 2.171 5 2v6a44.293 44.293 0 0 1-2-3c-.886.825-1.219 1.825-1 3-2.748-.532-4.748-1.532-6-3-.17 1.322.163 2.489 1 3.5-1.623 3.42-2.623 7.087-3 11 1.022 2.316 2.522 2.816 4.5 1.5 1.202 2.178 1.702 4.51 1.5 7-1.7-.126-3.2-.793-4.5-2-1.301.139-2.134.805-2.5 2-1.765.961-3.765 1.295-6 1-.667 0-1-.333-1-1 1.823-2.516 2.823-5.516 3-9h3v-8h-3a44.87 44.87 0 0 0 1-10h3a32.462 32.462 0 0 0 .5 8c1.392-2.778 1.892-5.778 1.5-9z"/><path style="opacity:1" fill="#414141" d="M144.5 8.5c.689-1.274 1.523-1.274 2.5 0 .498 3.317.665 6.65.5 10-1.175.219-2.175-.114-3-1a31.696 31.696 0 0 0 2-6c.047-1.538-.62-2.538-2-3z"/><path style="opacity:1" fill="#707070" d="M229.5 14.5c.319 4.863-.014 9.53-1 14-2.613-2.025-2.613-4.192 0-6.5-.84-1.171-1.673-2.338-2.5-3.5-.816 1.323-1.983 1.99-3.5 2-.823-1.955-.99-3.955-.5-6 1.458 1.247 2.958 1.247 4.5 0a4.458 4.458 0 0 1 1.5 2c.278-.916.778-1.582 1.5-2z"/><path style="opacity:1" fill="#323232" d="M89.5 17.5c.958.453 1.792 1.12 2.5 2 5.52-2.587 9.519-.92 12 5a20.641 20.641 0 0 1 2-6c.977-1.274 1.811-1.274 2.5 0a148.932 148.932 0 0 0-.5 9c-2.284 2.882-5.117 4.882-8.5 6h-3a60.14 60.14 0 0 0-2.5-13c-1.775 1.036-3.609 1.036-5.5 0v-1c-1.531-1.424-1.198-2.091 1-2z"/><path style="opacity:1" fill="#3c3c3c" d="M222.5 20.5c1.517-.01 2.684-.677 3.5-2 .827 1.162 1.66 2.329 2.5 3.5-2.613 2.308-2.613 4.475 0 6.5v8h-9a348.382 348.382 0 0 1 0-18c-.518-4.78-1.852-5.114-4-1l1 2c-1.846 4.082-2.513 8.415-2 13-.667 0-1-.333-1-1-1.328-1.007-2.328-2.34-3-4a4.451 4.451 0 0 1 2-1.5 70.888 70.888 0 0 1-3-7.5c.992.172 1.658-.162 2-1 .897 1.098 1.73 1.098 2.5 0a34.112 34.112 0 0 1 3-6c1.011.837 2.178 1.17 3.5 1v20c1.175.219 2.175-.114 3-1-1.353-1.024-2.02-2.357-2-4h3c-.043-2.588-1.043-4.754-3-6.5.228-.399.562-.565 1-.5z"/><path style="opacity:1" fill="#404040" d="M33.5 13.5c.438-.065.772.101 1 .5a185.59 185.59 0 0 0-2 7.5c1.03 2.604 1.03 5.27 0 8a42.342 42.342 0 0 0-7.5-2c-3.112 1.735-6.279 2.402-9.5 2-2.057.064-3.723-.602-5-2 1.007-1.328 2.34-2.328 4-3 1.758.946 3.424.946 5 0a7.253 7.253 0 0 0-2-2.5c1.625-.852 1.958-1.852 1-3l3-1.5c2.897 3.512 5.564 3.512 8 0a32.367 32.367 0 0 0-4.5-3c-3.202 1.49-5.702.656-7.5-2.5.667-.667 1.333-.667 2 0 1.401 2.71 3.401 3.044 6 1 .83-1.816 1.663-3.65 2.5-5.5 1.14 1.578 1.64 3.245 1.5 5 1.189.929 2.522 1.262 4 1z"/><path style="opacity:1" fill="#282828" d="M38.5 17.5c-.086.996.248 1.83 1 2.5 4.085 1.584 7.918 1.417 11.5-.5.684 1.284.517 2.45-.5 3.5 2.244.05 3.91.883 5 2.5a5.728 5.728 0 0 1-1 3c-1.184-1.91-2.684-2.243-4.5-1-1.17-2.116-2.67-2.782-4.5-2a32.371 32.371 0 0 1 4 5.5c-2.536.186-4.869.686-7 1.5-2.544 1.208-3.877 3.208-4 6 .172.992-.162 1.658-1 2a21.445 21.445 0 0 0-1-7 86.79 86.79 0 0 1-2-12c.826-1.764 2.16-3.098 4-4z"/><path style="opacity:1" fill="#6c6c6c" d="M73.5 14.5h1c-.393 3.013.274 5.68 2 8h-3v8c.453 6.183-.047 12.183-1.5 18a202.858 202.858 0 0 0-1.5-19v-6c.691-3.723 1.691-6.723 3-9z"/><path style="opacity:1" fill="#747474" d="M218.5 10.5c-2.549-.059-4.549.941-6 3-1.503-.552-3.169-.552-5 0-.365 4.921.635 5.255 3 1 .886.825 1.219 1.825 1 3-.342.838-1.008 1.172-2 1-2.567 1.735-2.567 3.735 0 6a25.866 25.866 0 0 0-5 3c-1.602-1.05-2.435-.383-2.5 2l-4-5c-.414.457-.914.79-1.5 1-.929-1.189-1.262-2.522-1-4 1.624-.14 2.79.527 3.5 2 .96-2.48 1.793-4.98 2.5-7.5l-1.5-1.5a14.838 14.838 0 0 1-3.5 4c-1.348-2.111-1.015-3.945 1-5.5-.916-.278-1.582-.778-2-1.5 1.322.17 2.489-.163 3.5-1l1-5c1.525 1.22 3.359 1.887 5.5 2l5-.5c.556-.383.889-.883 1-1.5.397-1.025 1.063-1.192 2-.5a190.302 190.302 0 0 0 5 5.5z"/><path style="opacity:1" fill="#818181" d="M116.5-.5h12c.295 2.235-.039 4.235-1 6 .086-.996-.248-1.83-1-2.5-1.947-.991-3.947-1.325-6-1 1.017 4.263 1.017 8.596 0 13 .044 1.764.378 3.43 1 5 1.973.495 3.973.662 6 .5v-6c.968 2.107 1.302 4.44 1 7 1.859-.04 3.192.794 4 2.5-1.304.804-1.971 1.97-2 3.5.654 1.004 1.487 2.004 2.5 3a32.444 32.444 0 0 0 1.5 6 58.21 58.21 0 0 1-5 8.5 7.292 7.292 0 0 0 3 2l-4 1c6.563.9 6.563 2.068 0 3.5-1.717-1.169-2.384-2.835-2-5 1.153-5.819 1.319-11.819.5-18-2.041-.923-4.208-1.256-6.5-1-.323 6.522.01 12.855 1 19a36.017 36.017 0 0 1 4 8h-4c-9.515.327-18.848-.006-28-1 6.342.166 12.675 0 19-.5a173.65 173.65 0 0 1 2-6.5c3.949-.193 3.949-.693 0-1.5a4.932 4.932 0 0 1 3-.5v-16c-5.375-1.695-5.042-2.861 1-3.5-2.437-1.375-5.103-1.875-8-1.5v-5c0-1.333.667-2 2-2-.16 1.7.006 3.366.5 5a4.934 4.934 0 0 0 .5-3h4a96.252 96.252 0 0 0-1-19z"/><path style="opacity:1" fill="#4c4c4c" d="M108.5 18.5h2v5c2.897-.375 5.563.125 8 1.5-6.042.639-6.375 1.805-1 3.5h-5c.166 6.01-.001 12.01-.5 18l-1-16c-.935 4.574-2.435 4.907-4.5 1-1.018.693-2.018 1.36-3 2h-4c3.383-1.118 6.216-3.118 8.5-6 .087-3.207.254-6.207.5-9z"/><path style="opacity:1" fill="#a0a0a0" d="M190.5 33.5c-6.047.493-7.38-1.674-4-6.5-1.266-2.383-1.932-5.05-2-8l.5-7.5 2-2c2.259 6.854 3.426 6.52 3.5-1 .741-3.792 2.074-3.959 4-.5-.602 1.563-1.435 1.396-2.5-.5a55.582 55.582 0 0 1-1.5 9c1.789 3.056 2.456 6.39 2 10h-3a51.56 51.56 0 0 1 1 7z"/><path style="opacity:1" fill="#282828" d="M76.5 22.5c2.6 1.886 3.6 4.552 3 8v8a6.845 6.845 0 0 0-4 1 471.119 471.119 0 0 0-2-9v-8h3z"/><path style="opacity:1" fill="#6b6b6b" d="M231.5 21.5h3v8h-3v-8z"/><path style="opacity:1" fill="#707070" d="M266.5 31.5c-2.591.754-4.424 2.421-5.5 5l-1-1c-1.883 1.153-2.716 2.82-2.5 5h-2c-3.528-.951-7.195-1.118-11-.5a4.451 4.451 0 0 0 2-1.5c-1.254-2.143-1.254-4.143 0-6a20.088 20.088 0 0 0 1.5 6 18.991 18.991 0 0 0 1.5-8h3a32.462 32.462 0 0 0 .5 8 261.53 261.53 0 0 1 2.5-18 8.43 8.43 0 0 0 .5 4c.741 1.14 1.575 1.14 2.5 0 1.211-.774 1.211-1.607 0-2.5 1.376-2.543 2.543-2.71 3.5-.5a73.732 73.732 0 0 1 5.5-11c.638 7.04.305 14.04-1 21z"/><path style="opacity:1" fill="#272727" d="M219.5 36.5h-5v-4c-.513-4.585.154-8.918 2-13l-1-2c2.148-4.114 3.482-3.78 4 1a348.382 348.382 0 0 0 0 18z"/><path style="opacity:1" fill="#464646" d="M247.5 18.5c.543.06.876.393 1 1a11.287 11.287 0 0 0-2 6c1.058 2.394 1.058 4.728 0 7-1.254 1.857-1.254 3.857 0 6a4.451 4.451 0 0 1-2 1.5c3.805-.618 7.472-.451 11 .5-7.249.42-13.582 2.92-19 7.5a14.729 14.729 0 0 0-5 1.5l7 2c-1.984 1.206-3.984 1.206-6 0l-3 2c-3.942-.69-7.942-.69-12 0 1.051-.722 1.718-1.722 2-3 2.825.338 4.992-.662 6.5-3 .725 1.658 1.892 2.158 3.5 1.5a46.342 46.342 0 0 1 13-9 52.56 52.56 0 0 0-7-1.5c.366-1.195 1.199-1.861 2.5-2 1.3 1.207 2.8 1.874 4.5 2 .202-2.49-.298-4.822-1.5-7-1.978 1.316-3.478.816-4.5-1.5.377-3.913 1.377-7.58 3-11-.837-1.011-1.17-2.178-1-3.5 1.252 1.468 3.252 2.468 6 3-.219-1.175.114-2.175 1-3a44.293 44.293 0 0 0 2 3z"/><path style="opacity:1" fill="#8f8f8f" d="M240.5 21.5c1.25.077 2.083.744 2.5 2 .494 1.634.66 3.3.5 5h-3v-7z"/><path style="opacity:1" fill="#747474" d="M249.5 20.5c1.478-.262 2.811.071 4 1a19.372 19.372 0 0 0-1 8h-3v-9z"/><path style="opacity:1" fill="#a8a8a8" d="M66.5 23.5c-1.533.145-2.866 1.312-4 3.5.13 1.059.63 1.892 1.5 2.5a7.291 7.291 0 0 1 2-3 27.57 27.57 0 0 0 1.5 5c-4.959-.151-9.959.515-15 2-.135-2.054.532-3.72 2-5a5.728 5.728 0 0 0 1-3 26.538 26.538 0 0 1 7-5c1.983.315 3.316 1.315 4 3z"/><path style="opacity:1" fill="#636363" d="M160.5-.5h7c-.968 2.945-1.134 5.945-.5 9 .71 1.473 1.876 2.14 3.5 2v-6a4.932 4.932 0 0 1-3-.5c.88-1.356 1.214-2.856 1-4.5h6v2a6150.083 6150.083 0 0 1-3 52c-.993-8.15-1.326-16.483-1-25-2.705-.12-3.372.88-2 3-1.353 1.024-2.02 2.357-2 4-1.951-.273-3.451.393-4.5 2-.278-.916-.778-1.583-1.5-2a30.968 30.968 0 0 1 2-2c-1.671-2.01-2.338-4.343-2-7-.434-2.277.233-4.61 2-7-2.667-4.333-2.667-8.667 0-13-1.437-2.077-2.104-4.41-2-7z"/><path style="opacity:1" fill="#3f3f3f" d="M164.5 16.5c.802 1.452 1.302 3.118 1.5 5 1.269-1.405 1.769-3.071 1.5-5h3v8h-6v-8z"/><path style="opacity:1" fill="#929292" d="M167.5-.5h1c.214 1.644-.12 3.144-1 4.5.948.483 1.948.65 3 .5v6c-1.624.14-2.79-.527-3.5-2-.634-3.055-.468-6.055.5-9z"/><path style="opacity:1" fill="#9d9d9d" d="M128.5-.5h9c-.113 2.549.554 4.882 2 7-1.76 2.712-2.427 5.712-2 9v8h3v5l-3 3v15c.321 1.548 1.321 2.215 3 2v8c-6.329-.4-12.662-.733-19-1v-1h4a36.017 36.017 0 0 0-4-8h5c-.384 2.165.283 3.831 2 5 6.563-1.432 6.563-2.6 0-3.5l4-1a7.292 7.292 0 0 1-3-2 58.21 58.21 0 0 0 5-8.5 32.444 32.444 0 0 1-1.5-6c-1.013-.996-1.846-1.996-2.5-3 .029-1.53.696-2.696 2-3.5-.808-1.706-2.141-2.54-4-2.5.302-2.56-.032-4.893-1-7v-9c.961-1.765 1.295-3.765 1-6z"/><path style="opacity:1" fill="#575757" d="M195.5 11.5c.418.722 1.084 1.222 2 1.5-2.015 1.555-2.348 3.389-1 5.5a14.838 14.838 0 0 0 3.5-4l1.5 1.5a82.562 82.562 0 0 1-2.5 7.5c-.71-1.473-1.876-2.14-3.5-2-.262 1.478.071 2.811 1 4a3.646 3.646 0 0 0 1.5-1l4 5c.065-2.383.898-3.05 2.5-2a25.866 25.866 0 0 1 5-3c-2.567-2.265-2.567-4.265 0-6a70.888 70.888 0 0 0 3 7.5 4.451 4.451 0 0 0-2 1.5c.672 1.66 1.672 2.993 3 4a5.577 5.577 0 0 0-3 1c-1.342-1.505-3.008-2.172-5-2-1.235.221-2.235.888-3 2-2.009-.556-4.009-1.89-6-4a15.013 15.013 0 0 1-3.5 4l-1.5-1a1977.602 1977.602 0 0 0 4-20z"/><path style="opacity:1" fill="#525252" d="M32.5 21.5h2a86.79 86.79 0 0 0 2 12c-1.941.936-3.608 2.27-5 4-7.598.17-13.765 3.17-18.5 9-.941 2.227-2.108 4.227-3.5 6v-3c-2.714.25-5.38.417-8 .5 1.405-1.27 3.071-1.77 5-1.5a4.932 4.932 0 0 1 .5-3c1.666.84 1.833.34.5-1.5a14.292 14.292 0 0 0 6.5-2.5c.492-1.049.326-2.049-.5-3 1.507-1.239 2.674-.905 3.5 1 .79-2.104 2.29-3.437 4.5-4a326.085 326.085 0 0 1-11-5.5c-.88-.708-1.547-1.542-2-2.5h2c1.277 1.398 2.943 2.064 5 2 3.221.402 6.388-.265 9.5-2 2.59.445 5.09 1.111 7.5 2 1.03-2.73 1.03-5.396 0-8z"/><path style="opacity:1" fill="#979797" d="M82.5 18.5c-.918 3.712-.918 7.378 0 11h3a50.441 50.441 0 0 1-.5 10c-.718-.95-1.55-1.117-2.5-.5 2.694 2.553 2.027 3.72-2 3.5.317-4.202-.017-8.202-1-12 .6-3.448-.4-6.114-3-8-1.726-2.32-2.393-4.987-2-8 3.677-1.043 6.343.29 8 4z"/><path style="opacity:1" fill="#555" d="M147.5 24.5c.043 4.393-.457 4.726-1.5 1l-.5 2c3.206 4.346 2.206 7.18-3 8.5.079 2.305.246 4.805.5 7.5l1 1c.495-1.973.662-3.973.5-6a8.435 8.435 0 0 1 4 .5c-.956 3.394-1.289 6.894-1 10.5h3c-.683 1.676-2.017 2.343-4 2 .423 2.281-.244 3.948-2 5h-1c.172-1.992-.495-3.658-2-5 3.097-.694 3.431-1.694 1-3a941.048 941.048 0 0 1-2-20v-5h-3v-8c.814-2.131 1.314-4.464 1.5-7 .173 4.04.673 8.04 1.5 12 1.488 1.65 2.488 3.65 3 6 .718-2.558 2.051-3.225 4-2z"/><path style="opacity:1" fill="#898989" d="M189.5 3.5c3.35-.165 6.683.002 10 .5 2.366 2.947 4.866 3.114 7.5.5 1.44.648 2.94.98 4.5 1-.111.617-.444 1.117-1 1.5l-5 .5c-2.141-.113-3.975-.78-5.5-2l-1 5c-1.011.837-2.178 1.17-3.5 1a1977.602 1977.602 0 0 1-4 20l1.5 1a15.013 15.013 0 0 0 3.5-4c1.991 2.11 3.991 3.444 6 4 .765-1.112 1.765-1.779 3-2v18h-1v-15c-3.211-.488-6.044.179-8.5 2a71.93 71.93 0 0 0-5.5-2 51.56 51.56 0 0 0-1-7h3c.456-3.61-.211-6.944-2-10a55.582 55.582 0 0 0 1.5-9c1.065 1.896 1.898 2.063 2.5.5-1.926-3.459-3.259-3.292-4 .5-.951-1.419-1.284-3.085-1-5z"/><path style="opacity:1" fill="#9a9a9a" d="M190.5 33.5a71.93 71.93 0 0 1 5.5 2c2.456-1.821 5.289-2.488 8.5-2v15c-.968-2.107-1.302-4.44-1-7v-2c-6.145-.99-12.478-1.324-19-1v-4c2.235.295 4.235-.039 6-1z"/><path style="opacity:1" fill="#4a4a4a" d="M180.5 40.5v-15c.768-.762 1.268-1.762 1.5-3a133.289 133.289 0 0 1 1.5 24h-3v-6z"/><path style="opacity:1" fill="#666" d="M205.5 30.5c1.992-.172 3.658.495 5 2a5.577 5.577 0 0 1 3-1c0 .667.333 1 1 1v4h14v2c0 .667.333 1 1 1-.641.982-1.307 1.982-2 3-3.439.407-6.439 1.407-9 3-1.756-1.052-2.423-2.719-2-5h-11v-10z"/><path style="opacity:1" fill="#363636" d="M117.5 28.5v16a4.932 4.932 0 0 0-3 .5c3.949.807 3.949 1.307 0 1.5a173.65 173.65 0 0 0-2 6.5c-6.325.5-12.658.666-19 .5h-5c-1.006-.896-1.006-1.562 0-2 5.857.93 12.024.93 18.5 0 .684-1.284.517-2.45-.5-3.5 1.049-.492 2.049-.326 3 .5 1.131-1.575 1.298-3.241.5-5l-1 3c-2.388-.605-4.721-1.938-7-4a4.458 4.458 0 0 1-1.5 2c-.952-1.545-1.285-3.212-1-5 1.322-.17 2.489.163 3.5 1 .497-2.31.663-4.643.5-7 .982-.64 1.982-1.307 3-2 2.065 3.907 3.565 3.574 4.5-1l1 16c.499-5.99.666-11.99.5-18h5z"/><path style="opacity:1" fill="#353535" d="M137.5 31.5c1.309 2.07 1.975 4.57 2 7.5-.025 2.93-.691 5.43-2 7.5v-15z"/><path style="opacity:1" fill="#777" d="M160.5 26.5c-.338 2.657.329 4.99 2 7a30.968 30.968 0 0 0-2 2 19.372 19.372 0 0 0 1 8 6.807 6.807 0 0 1-3 1.5c1.715.777 2.715 2.11 3 4a97.705 97.705 0 0 0-3 7.5c.457.797 1.124 1.13 2 1-1.205 1.186-2.539 1.186-4 0-1.111-4.215-.778-8.382 1-12.5l-.5-4.5c-1.016 1.134-1.683.8-2-1a183.536 183.536 0 0 0-2.5-17c-1.198-3.988-1.198-7.989 0-12l2 1c1.152 3.817 1.152 7.65 0 11.5.066 4.04 1.4 7.54 4 10.5a246.792 246.792 0 0 1 2-7z"/><path style="opacity:1" fill="#a5a5a5" d="M174.5 1.5c.223 7.68.723 15.348 1.5 23a52.141 52.141 0 0 1 1.5-10c.917.627 1.917.96 3 1v25c-1.152 3.553-.985 7.22.5 11 1.134-5.297 1.968-5.297 2.5 0 1.291.237 2.291-.096 3-1 1.322.17 2.489-.163 3.5-1 1 2.667 2 2.667 3 0 1.531 1.797 3.364 3.13 5.5 4v3a104.578 104.578 0 0 0-9-1c-2.549.059-4.549-.941-6-3a73.008 73.008 0 0 0-10 4c.073-1.527-.594-2.527-2-3a6150.083 6150.083 0 0 0 3-52z"/><path style="opacity:1" fill="#939393" d="M42.5 32.5h5c1.794 3.033 2.46 6.2 2 9.5l-4 5c.906 1.7 1.24 3.533 1 5.5a25.402 25.402 0 0 0-5-7 43.327 43.327 0 0 0-3-7c.123-2.792 1.456-4.792 4-6z"/><path style="opacity:1" fill="#484848" d="M88.5 20.5c1.891 1.036 3.725 1.036 5.5 0a60.14 60.14 0 0 1 2.5 13h3c-.672.767-1.505 1.434-2.5 2l-1 10c-1.183 1.231-2.35 1.231-3.5 0 1.044-1.123 1.71-2.456 2-4-.58-3.185-.58-6.519 0-10l-.5-6c-.67-.752-1.504-1.086-2.5-1l-3-4z"/><path style="opacity:1" fill="#6a6a6a" d="M147.5 24.5c.79 1.108 1.29 2.442 1.5 4a51.239 51.239 0 0 0 2.5-4h1c.596 2.465-.07 4.798-2 7 2.834 5.09 3.834 10.424 3 16l-2-9a31.117 31.117 0 0 0-1 11h-3c-.289-3.606.044-7.106 1-10.5a8.435 8.435 0 0 0-4-.5 18.452 18.452 0 0 1-.5 6l-1-1a126.504 126.504 0 0 1-.5-7.5c5.206-1.32 6.206-4.154 3-8.5l.5-2c1.043 3.726 1.543 3.393 1.5-1z"/><path style="opacity:1" fill="#434343" d="M8.5 27.5c.453.958 1.12 1.792 2 2.5a326.085 326.085 0 0 0 11 5.5c-2.21.563-3.71 1.896-4.5 4-.826-1.905-1.993-2.239-3.5-1 .826.951.992 1.951.5 3A14.292 14.292 0 0 1 7.5 44c1.333 1.84 1.166 2.34-.5 1.5a4.932 4.932 0 0 0-.5 3c-1.929-.27-3.595.23-5 1.5 2.62-.083 5.286-.25 8-.5v3c-.734 1.208-1.067 2.541-1 4l-2 5a29.414 29.414 0 0 0-7 2v-40a6.845 6.845 0 0 0 4-1c1.196.346 1.196.846 0 1.5 2.38.223 4.048 1.39 5 3.5z"/><path style="opacity:1" fill="#515151" d="M152.5 22.5a183.536 183.536 0 0 1 2.5 17c.317 1.8.984 2.134 2 1l.5 4.5c-1.778 4.118-2.111 8.285-1 12.5v2l-2-1c-.421-2.41-1.754-4.243-4-5.5 2.625-1.376 2.625-2.542 0-3.5a31.117 31.117 0 0 1 1-11l2 9c.834-5.576-.166-10.91-3-16 1.93-2.202 2.596-4.535 2-7v-2z"/><path style="opacity:1" fill="#484848" d="M203.5 39.5v2c-.951 1.419-1.284 3.085-1 5-2.98.525-5.813.525-8.5 0a7.299 7.299 0 0 0-3.5 2c-2.237-7.07-3.57-6.403-4 2-.982-3.462-1.315-7.129-1-11h18z"/><path style="opacity:1" fill="#818181" d="m82.5 18.5 4 10a471.119 471.119 0 0 1 2-9v1l3 4c-1.817 4.91-2.817 10.243-3 16l.5 3c.654-1.196 1.154-1.196 1.5 0-1.45 1.35-2.117 3.017-2 5-.81-1.792-1.31-3.792-1.5-6l-.5 4c.085 1.833.752 3.166 2 4v1c-1.006.438-1.006 1.104 0 2-5.526.321-10.86-.012-16-1a240.77 240.77 0 0 0 12-3.5 8.434 8.434 0 0 0-4-.5v-6c4.027.22 4.694-.947 2-3.5.95-.617 1.782-.45 2.5.5.498-3.317.665-6.65.5-10h-3c-.918-3.622-.918-7.288 0-11z"/><path style="opacity:1" fill="#757575" d="M54.5 28.5c-1.468 1.28-2.135 2.946-2 5 5.041-1.485 10.041-2.151 15-2 1.113 1.446 1.28 3.113.5 5l-5.5-.5c.457.414.79.914 1 1.5-1.692 2.295-2.526 4.628-2.5 7-2.572-2.87-5.572-4.204-9-4l-.5 1 6 2.5c-.916.278-1.583.778-2 1.5-3.289-1.69-5.289-.69-6 3-1.574 1.602-2.24 3.602-2 6h-3c-.667 0-1-.333-1-1 1.291.237 2.291-.096 3-1 .24-1.967-.094-3.8-1-5.5l4-5c.46-3.3-.206-6.467-2-9.5h-5c2.131-.814 4.464-1.314 7-1.5a32.371 32.371 0 0 0-4-5.5c1.83-.782 3.33-.116 4.5 2 1.816-1.243 3.316-.91 4.5 1z"/><path style="opacity:1" fill="#4e4e4e" d="M126.5 46.5h-5c-.99-6.145-1.323-12.478-1-19 2.292-.256 4.459.077 6.5 1 .819 6.181.653 12.181-.5 18z"/><path style="opacity:1" fill="#303030" d="M121.5 28.5c1.542.8 3.208 1.134 5 1a112.97 112.97 0 0 1-.5 15 7.292 7.292 0 0 1-2-3l-1 3c-1.397-5.208-1.897-10.541-1.5-16z"/><path style="opacity:1" fill="#2c2c2c" d="M235.5 38.5a52.56 52.56 0 0 1 7 1.5 46.342 46.342 0 0 0-13 9c-1.608.658-2.775.158-3.5-1.5-1.508 2.338-3.675 3.338-6.5 3-.838-.342-1.172-1.008-1-2-1.333-1-1.333-2 0-3 2.561-1.593 5.561-2.593 9-3a184.223 184.223 0 0 0 2-3c2.235.295 4.235-.039 6-1z"/><path style="opacity:1" fill="#494949" d="M66.5 23.5a38.496 38.496 0 0 1 4 6 202.858 202.858 0 0 1 1.5 19c1.453-5.817 1.953-11.817 1.5-18a471.119 471.119 0 0 1 2 9 6.845 6.845 0 0 1 4-1v-8c.983 3.798 1.317 7.798 1 12v6a8.434 8.434 0 0 1 4 .5 240.77 240.77 0 0 1-12 3.5c-6.288-.982-11.955-3.316-17-7 .417-.722 1.084-1.222 2-1.5l-6-2.5.5-1c3.428-.204 6.428 1.13 9 4-.026-2.372.808-4.705 2.5-7a3.646 3.646 0 0 0-1-1.5l5.5.5c.78-1.887.613-3.554-.5-5a27.57 27.57 0 0 1-1.5-5 7.291 7.291 0 0 0-2 3c-.87-.608-1.37-1.441-1.5-2.5 1.134-2.188 2.467-3.355 4-3.5z"/><path style="opacity:1" fill="#404040" d="M205.5 40.5h11c-.423 2.281.244 3.948 2 5-1.333 1-1.333 2 0 3l-4 1c-.702-.616-1.702-.616-3 0v-3h-4v3h-1c0-.667-.333-1-1-1v-8z"/><path style="opacity:1" fill="#525252" d="M269.5 44.5v13c-1.88.27-3.213-.396-4-2 .966-3.913 2.299-7.58 4-11z"/><path style="opacity:1" fill="#d5d5d5" d="M88.5 48.5v2c-1.248-.834-1.915-2.167-2-4l.5-4c.19 2.208.69 4.208 1.5 6z"/><path style="opacity:1" fill="#2b2b2b" d="M91.5 24.5c.996-.086 1.83.248 2.5 1l.5 6c-.58 3.481-.58 6.815 0 10-.29 1.544-.956 2.877-2 4 1.15 1.231 2.317 1.231 3.5 0l1-10c.995-.566 1.828-1.233 2.5-2h4a24.935 24.935 0 0 1-.5 7c-1.011-.837-2.178-1.17-3.5-1-.285 1.788.048 3.455 1 5a4.458 4.458 0 0 0 1.5-2c2.279 2.062 4.612 3.395 7 4l1-3c.798 1.759.631 3.425-.5 5-.951-.826-1.951-.992-3-.5 1.017 1.05 1.184 2.216.5 3.5-6.476.93-12.643.93-18.5 0v-3c-.117-1.983.55-3.65 2-5-.346-1.196-.846-1.196-1.5 0l-.5-3c.183-5.757 1.183-11.09 3-16z"/><path style="opacity:1" fill="#464646" d="M38.5 38.5a43.327 43.327 0 0 1 3 7l2 8c0 .667.333 1 1 1a44.834 44.834 0 0 1 1 10h-1c-1.222-8.404-4.556-15.904-10-22.5 1.496-.507 2.663-.007 3.5 1.5.47-1.077.303-2.077-.5-3 .838-.342 1.172-1.008 1-2z"/><path style="opacity:1" fill="#717171" d="M140.5 28.5a941.048 941.048 0 0 0 2 20c2.431 1.306 2.097 2.306-1 3 1.505 1.342 2.172 3.008 2 5h-3v-8c-1.679.215-2.679-.452-3-2 1.309-2.07 1.975-4.57 2-7.5-.025-2.93-.691-5.43-2-7.5l3-3z"/><path style="opacity:1" fill="#818181" d="M211.5 49.5v3h-3c.237-1.291-.096-2.291-1-3v-3h4v3z"/><path style="opacity:1" fill="gray" d="M266.5 31.5c-.165 3.35.002 6.683.5 10 1.666-.84 1.833-.34.5 1.5a2.427 2.427 0 0 0 2 .5v1c-1.701 3.42-3.034 7.087-4 11-.287-1.62-1.287-2.62-3-3a52.141 52.141 0 0 1-1.5-10c-.816-1.323-1.983-1.99-3.5-2-.216-2.18.617-3.847 2.5-5l1 1c1.076-2.579 2.909-4.246 5.5-5z"/><path style="opacity:1" fill="#272727" d="M49.5 48.5c1.572 2.715 2.572 5.715 3 9-.193 3.949-.693 3.949-1.5 0-.383.556-.883.89-1.5 1l-2-4c-.24-2.398.426-4.398 2-6z"/><path style="opacity:1" fill="#5e5e5e" d="M203.5 41.5c-.302 2.56.032 4.893 1 7h1c.667 0 1 .333 1 1a31.91 31.91 0 0 0-1.5 6 8.43 8.43 0 0 1-.5-4c-2.582-.475-4.582.192-6 2-2.136-.87-3.969-2.203-5.5-4-1 2.667-2 2.667-3 0-1.011.837-2.178 1.17-3.5 1 .43-8.403 1.763-9.07 4-2a7.299 7.299 0 0 1 3.5-2c2.687.525 5.52.525 8.5 0-.284-1.915.049-3.581 1-5z"/><path style="opacity:1" fill="#9b9b9b" d="M218.5 48.5c-.172.992.162 1.658 1 2-.282 1.278-.949 2.278-2 3h-1l-2-4 4-1z"/><path style="opacity:1" fill="#e0e0e0" d="M36.5 33.5a21.445 21.445 0 0 1 1 7c.803.923.97 1.923.5 3-.837-1.507-2.004-2.007-3.5-1.5 5.444 6.596 8.778 14.096 10 22.5.338 2.657-.329 4.99-2 7-3.098-2.543-6.431-4.543-10-6 1.327-4.316 2.66-8.649 4-13a111.085 111.085 0 0 0-2.5-8c-1.011-.837-2.178-1.17-3.5-1a81.872 81.872 0 0 1-1 18 493.061 493.061 0 0 0-4-3c-1.542-.8-3.209-1.134-5-1-2.448-.973-5.115-1.306-8-1-1.132-.854-2.465-.854-4 0-.067-1.459.266-2.792 1-4 1.392-1.773 2.559-3.773 3.5-6 4.735-5.83 10.902-8.83 18.5-9 1.392-1.73 3.059-3.064 5-4z"/><path style="opacity:1" fill="#bdbdbd" d="M41.5 45.5a25.402 25.402 0 0 1 5 7c-.709.904-1.709 1.237-3 1l-2-8z"/><path style="opacity:1" fill="#393939" d="M171.5 53.5c1.406.473 2.073 1.473 2 3a61.254 61.254 0 0 0-13 1c-.876.13-1.543-.203-2-1a97.705 97.705 0 0 1 3-7.5c-.285-1.89-1.285-3.223-3-4a6.807 6.807 0 0 0 3-1.5 19.372 19.372 0 0 1-1-8c.722.417 1.222 1.084 1.5 2 1.049-1.607 2.549-2.273 4.5-2-.02-1.643.647-2.976 2-4-1.372-2.12-.705-3.12 2-3-.326 8.517.007 16.85 1 25z"/><path style="opacity:1" fill="#888" d="M150.5 49.5c2.625.958 2.625 2.124 0 3.5 2.246 1.257 3.579 3.09 4 5.5-3.578-.049-6.911-.715-10-2 1.756-1.052 2.423-2.719 2-5 1.983.343 3.317-.324 4-2z"/><path style="opacity:1" fill="#cfcfcf" d="M55.5 45.5c5.045 3.684 10.712 6.018 17 7 5.14.988 10.474 1.321 16 1h5c9.152.994 18.485 1.327 28 1v1c-2.894-.458-5.394.209-7.5 2a54.309 54.309 0 0 0-10-1c-.432 1.1.068 1.767 1.5 2 2.319.564 4.653 1.064 7 1.5A258.455 258.455 0 0 1 86 57.5l-3.5 1c1.586 1.673 2.253 3.673 2 6a42.618 42.618 0 0 1-5-1.5c-1.15-2.2-2.817-3.7-5-4.5-5.21-1.271-9.876-3.605-14-7-.204 2.185-.87 4.185-2 6-.438-.065-.772.101-1 .5A45.44 45.44 0 0 0 71 61.5c1.376.184 2.209.85 2.5 2h-3a112.688 112.688 0 0 0-11.5-2l-2.5 1a28.83 28.83 0 0 1 1.5 4c.483-.948.65-1.948.5-3h3c-1.55 3.119-2.55 6.452-3 10-.768.763-1.268 1.763-1.5 3a22.388 22.388 0 0 1-2.5-8c-.308-3.86-.975-7.526-2-11-.428-3.285-1.428-6.285-3-9 .711-3.69 2.711-4.69 6-3z"/><path style="opacity:1" fill="#252525" d="M255.5 40.5h2c1.517.01 2.684.677 3.5 2a52.141 52.141 0 0 0 1.5 10c1.713.38 2.713 1.38 3 3 .787 1.604 2.12 2.27 4 2v1h-3c.396 2.544-.271 4.711-2 6.5 1.405 1.27 3.071 1.77 5 1.5v1c-2.858-.472-4.858.528-6 3-.333-1-1-1.667-2-2 1.629-1.696 1.296-2.696-1-3v-1c-.709-.904-1.709-1.237-3-1v-3c-2.218-3.213-3.385-6.88-3.5-11-2.291 4.063-5.791 5.896-10.5 5.5l-1 1a26.043 26.043 0 0 1 4.5 7.5c1.185-2.06 2.352-2.226 3.5-.5a11.184 11.184 0 0 0-1 4.5c-1.287 1.268-2.287.935-3-1-1.145 1.276-1.145 2.609 0 4a18.664 18.664 0 0 1-3 5h-5c.284-1.915-.049-3.581-1-5-.499-2.89-1.999-3.556-4.5-2a4.934 4.934 0 0 0-.5 3h-5c-.342-.838-1.008-1.172-2-1-1.749-2.875-4.415-4.208-8-4-.321-1.548-1.321-2.215-3-2 .237-1.291-.096-2.291-1-3v-5a6.544 6.544 0 0 1 3-3h1c4.058-.69 8.058-.69 12 0l3-2c2.016 1.206 4.016 1.206 6 0l-7-2a14.729 14.729 0 0 1 5-1.5c5.418-4.58 11.751-7.08 19-7.5z"/><path style="opacity:1" fill="#909090" d="M74.5 58.5a96.938 96.938 0 0 1-16-1c1.13-1.815 1.796-3.815 2-6 4.124 3.395 8.79 5.729 14 7z"/><path style="opacity:1" fill="#949494" d="m32.5 65.5-2 2a8.434 8.434 0 0 0-.5-4c-1.456 1.965-3.29 3.299-5.5 4-.958.453-1.792 1.12-2.5 2l-.5-1a32.242 32.242 0 0 0 4-10c1.315.976 2.648 1.976 4 3a81.872 81.872 0 0 0 1-18c1.322-.17 2.489.163 3.5 1a111.085 111.085 0 0 1 2.5 8c-1.34 4.351-2.673 8.684-4 13z"/><path style="opacity:1" fill="#e5e5e5" d="M121.5 55.5c6.338.267 12.671.6 19 1h4c3.089 1.285 6.422 1.951 10 2l2 1c3.045.889 5.711 2.389 8 4.5-4.188.176-8.188.676-12 1.5a129.71 129.71 0 0 0-17 2c-1.752-.082-2.752.75-3 2.5.624 2.085 1.624 3.918 3 5.5.065.438-.101.772-.5 1l-3-3c-.667.667-.667 1.333 0 2 4.456 4.61 8.29 9.61 11.5 15a16.08 16.08 0 0 0 2 5c-1.182 2.145-2.682 2.145-4.5 0-.14 1.755.36 3.422 1.5 5a3.647 3.647 0 0 1-1 1.5c-1.669.122-3.335-.212-5-1 2.095-.556 2.262-1.056.5-1.5-2.247 2.342-3.247 1.676-3-2 1.297 1.284 2.464 1.117 3.5-.5a8.435 8.435 0 0 0-4-.5 10.1 10.1 0 0 0-1.5-6c-1.874 2.276-3.541 1.942-5-1l-1 1c-2.019-1.947-3.519-4.28-4.5-7a7.253 7.253 0 0 1 2-2.5c-4.422-.758-7.255-3.258-8.5-7.5l-1 2c-.412-3.903-2.579-5.57-6.5-5a5.728 5.728 0 0 0-3 1c-2.502-2.834-5.502-3.834-9-3 2.023 2.353 4.023 4.686 6 7-2.5 1.446-5.167 1.946-8 1.5-.73-2.058-1.73-3.891-3-5.5l-1-2c.11-.617.444-1.117 1-1.5-2.41-.6-4.41-1.766-6-3.5.253-2.327-.414-4.327-2-6l3.5-1a258.455 258.455 0 0 0 26.5 2.5 130.601 130.601 0 0 1-7-1.5c-1.432-.233-1.932-.9-1.5-2 3.309.019 6.642.352 10 1 2.106-1.791 4.606-2.458 7.5-2z"/><path style="opacity:1" fill="#d1d1d1" d="m214.5 49.5 2 4a6.544 6.544 0 0 0-3 3c-.904.709-1.237 1.709-1 3-8.374-.426-16.207 1.24-23.5 5l-1-1a20.509 20.509 0 0 0-2.5 4.5c1.724.448 2.391 1.281 2 2.5 3.488-1.511 6.822-.678 10 2.5a4.451 4.451 0 0 0-2 1.5c3.089 1.62 5.756 3.62 8 6l4 4v2c-1.629-1.56-2.796-1.227-3.5 1-3.601-1.32-7.101-1.32-10.5 0h-1a175.9 175.9 0 0 0-23-21c.418-.722 1.084-1.222 2-1.5-2.145-.743-2.311-1.577-.5-2.5a11.47 11.47 0 0 1 2.5 1c1.269-1.68 2.936-2.847 5-3.5l9-1-2-2c1.558-.21 2.891-.71 4-1.5 3.018.204 6.018.537 9 1v-3c1.418-1.808 3.418-2.475 6-2a8.43 8.43 0 0 0 .5 4 31.91 31.91 0 0 1 1.5-6h1c.904.709 1.237 1.709 1 3h3v-3c1.298-.616 2.298-.616 3 0z"/><path style="opacity:1" fill="#444" d="M257.5 60.5h-3c.108 2.014-.558 3.68-2 5-.79.901-1.79 1.568-3 2 .019-1.56.352-3.06 1-4.5-1.148-1.726-2.315-1.56-3.5.5a26.043 26.043 0 0 0-4.5-7.5l1-1c4.709.396 8.209-1.437 10.5-5.5.115 4.12 1.282 7.787 3.5 11z"/><path style="opacity:1" fill="#cecece" d="M12.5 56.5c2.247 1.406 2.58 3.24 1 5.5-2.562 3.712-5.729 6.879-9.5 9.5l-1 6c-1.011.837-2.178 1.17-3.5 1v-6c2.687-1.894 2.687-2.56 0-2v-5c1.25.077 2.083.744 2.5 2 2.102-1.595 3.602-3.595 4.5-6l2-5c1.535-.854 2.868-.854 4 0z"/><path style="opacity:1" fill="#a3a3a3" d="M44.5 54.5h3l2 4c.202 2.45-.131 4.783-1 7-.722-.418-1.222-1.084-1.5-2-.399.228-.565.562-.5 1h-1c.04-3.38-.293-6.714-1-10z"/><path style="opacity:1" fill="#515151" d="M52.5 57.5c1.025 3.474 1.692 7.14 2 11-.904.709-1.237 1.709-1 3-.81-1.792-1.31-3.792-1.5-6-1.408 3.945-2.575 3.945-3.5 0 .869-2.217 1.202-4.55 1-7 .617-.11 1.117-.444 1.5-1 .807 3.949 1.307 3.949 1.5 0z"/><path style="opacity:1" fill="#4b4b4b" d="M58.5 57.5a96.938 96.938 0 0 0 16 1 18.941 18.941 0 0 1 3 5h-4c-.291-1.15-1.124-1.816-2.5-2A45.44 45.44 0 0 1 57.5 58c.228-.399.562-.565 1-.5z"/><path style="opacity:1" fill="#525252" d="M269.5 58.5v8c-1.929.27-3.595-.23-5-1.5 1.729-1.789 2.396-3.956 2-6.5h3z"/><path style="opacity:1" fill="#8f8f8f" d="M74.5 58.5c2.183.8 3.85 2.3 5 4.5a42.618 42.618 0 0 0 5 1.5c1.59 1.734 3.59 2.9 6 3.5-.556.383-.89.883-1 1.5-.617.11-1.117.444-1.5 1-.278-.916-.778-1.582-1.5-2a58.35 58.35 0 0 0-9-5 18.941 18.941 0 0 0-3-5z"/><path style="opacity:1" fill="#bcbcbc" d="M189.5 55.5c-1.109.79-2.442 1.29-4 1.5l2 2-9 1c-2.064.653-3.731 1.82-5 3.5a11.47 11.47 0 0 0-2.5-1c-1.811.923-1.645 1.757.5 2.5-.916.278-1.582.778-2 1.5h-1c-5.14-.988-10.474-1.321-16-1 3.812-.824 7.812-1.324 12-1.5-2.289-2.111-4.955-3.611-8-4.5v-2c1.461 1.186 2.795 1.186 4 0a61.254 61.254 0 0 1 13-1 73.008 73.008 0 0 1 10-4c1.451 2.059 3.451 3.059 6 3z"/><path style="opacity:1" fill="silver" d="M213.5 56.5v5c.14 1.624-.527 2.79-2 3.5a78.96 78.96 0 0 0-12 3 30.217 30.217 0 0 1 3 3.5c.111.617.444 1.117 1 1.5-2.527 2.467-2.527 4.967 0 7.5-2.244-2.38-4.911-4.38-8-6a4.451 4.451 0 0 1 2-1.5c-3.178-3.178-6.512-4.011-10-2.5.391-1.219-.276-2.052-2-2.5.647-1.61 1.48-3.11 2.5-4.5l1 1c7.293-3.76 15.126-5.426 23.5-5-.237-1.291.096-2.291 1-3z"/><path style="opacity:1" fill="#696969" d="M257.5 60.5v3c1.291-.237 2.291.096 3 1a24.93 24.93 0 0 0-8 1c1.442-1.32 2.108-2.986 2-5h3z"/><path style="opacity:1" fill="#9b9b9b" d="M6.5 61.5c-.898 2.405-2.398 4.405-4.5 6-.417-1.256-1.25-1.923-2.5-2v-2a29.414 29.414 0 0 1 7-2z"/><path style="opacity:1" fill="#494949" d="M70.5 63.5c-6.325-.496-6.659.67-1 3.5 3.195.18 6.195.68 9 1.5-1.459-.067-2.792.266-4 1-2.382 1.046-4.715 1.046-7 0 1.554-1.395 1.221-2.061-1-2-1.94.304-3.607 1.137-5 2.5 1.238-.077 2.238.09 3 .5-.356 1.022-1.022 1.689-2 2-.235-.597-.735-.93-1.5-1-1.011.556-1.844 1.222-2.5 2 .45-3.548 1.45-6.881 3-10h-3a4.932 4.932 0 0 1-.5 3 28.83 28.83 0 0 0-1.5-4l2.5-1c4.005.492 7.838 1.159 11.5 2z"/><path style="opacity:1" fill="#2f2f2f" d="M70.5 63.5h7a58.35 58.35 0 0 1 9 5c-2.481.758-5.148.758-8 0-2.805-.82-5.805-1.32-9-1.5-5.659-2.83-5.325-3.996 1-3.5z"/><path style="opacity:1" fill="#6d6d6d" d="M152.5 65.5c5.526-.321 10.86.012 16 1a152.532 152.532 0 0 0-32 3c-.838-.342-1.172-1.008-1-2a129.71 129.71 0 0 1 17-2z"/><path style="opacity:1" fill="#e6e6e6" d="M168.5 66.5c.728 2.235 2.061 4.068 4 5.5l-2 1a97.273 97.273 0 0 1 7 9.5c-2.626.95-5.292.95-8 0-5.384-1.85-11.051-3.016-17-3.5a92.538 92.538 0 0 0-17-6.5 5.727 5.727 0 0 1 1-3 152.532 152.532 0 0 1 32-3z"/><path style="opacity:1" fill="#626262" d="M217.5 66.5c3.585-.208 6.251 1.125 8 4a32.438 32.438 0 0 1-8-.5c-2.431-1.092-2.431-2.26 0-3.5z"/><path style="opacity:1" fill="#6f6f6f" d="M260.5 65.5c2.296.304 2.629 1.304 1 3-.958.453-1.792 1.12-2.5 2a4.94 4.94 0 0 0-2.5-1c-2.631 1.053-5.298 1.553-8 1.5a32.774 32.774 0 0 1 12-5.5z"/><path style="opacity:1" fill="#848484" d="M67.5 69.5c-1.067 3.068-3.067 5.068-6 6-.237-1.291.096-2.291 1-3 .978-.311 1.644-.978 2-2-.762-.41-1.762-.577-3-.5 1.393-1.363 3.06-2.196 5-2.5 2.221-.061 2.554.605 1 2z"/><path style="opacity:1" fill="#8a8a8a" d="M213.5 61.5c.904.709 1.237 1.709 1 3 1.679-.215 2.679.452 3 2-2.431 1.24-2.431 2.408 0 3.5 2.646.497 5.313.664 8 .5.801 1.542 1.134 3.209 1 5a4.932 4.932 0 0 0-3 .5c-.945 2.446-2.611 3.946-5 4.5h-3a20.088 20.088 0 0 1 1.5-6c2.374 2.44 4.541 2.106 6.5-1-2.693-1.77-5.693-2.437-9-2 .032-4.713-2.301-6.213-7-4.5l1 1a38.841 38.841 0 0 0-6 3.5 30.217 30.217 0 0 0-3-3.5 78.96 78.96 0 0 1 12-3c1.473-.71 2.14-1.876 2-3.5z"/><path style="opacity:1" fill="#848484" d="M16.5 58.5c1.751 1.8 3.085 3.966 4 6.5a29.187 29.187 0 0 0-1 7.5c-4.076.907-6.743 3.407-8 7.5 1.284.684 2.45.517 3.5-.5.464.594.631 1.261.5 2-8.656-.734-10.322-4.234-5-10.5a14.437 14.437 0 0 0 5.5-2.5c.498-3.317.665-6.65.5-10z"/><path style="opacity:1" fill="silver" d="M48.5 65.5c.925 3.945 2.092 3.945 3.5 0 .19 2.208.69 4.208 1.5 6a78.03 78.03 0 0 0 2 10.5 18.096 18.096 0 0 1-2.5 6.5 512.887 512.887 0 0 1-6.5-24c-.065-.438.101-.772.5-1 .278.916.778 1.582 1.5 2z"/><path style="opacity:1" fill="#e4e4e4" d="M107.5 70.5c3.921-.57 6.088 1.097 6.5 5l1-2c1.245 4.242 4.078 6.742 8.5 7.5a7.253 7.253 0 0 0-2 2.5c.981 2.72 2.481 5.053 4.5 7l1-1c1.459 2.942 3.126 3.276 5 1a10.1 10.1 0 0 1 1.5 6 8.435 8.435 0 0 1 4 .5c-1.036 1.617-2.203 1.784-3.5.5-.247 3.676.753 4.342 3 2 1.762.444 1.595.944-.5 1.5 1.665.788 3.331 1.122 5 1a3.647 3.647 0 0 0 1-1.5c-1.14-1.578-1.64-3.245-1.5-5 1.818 2.145 3.318 2.145 4.5 0a16.08 16.08 0 0 1-2-5 54.893 54.893 0 0 0 7 7 699.275 699.275 0 0 0 4 7 295.9 295.9 0 0 0 5.5 11 102.872 102.872 0 0 0 2 9c-4.596-8.555-10.429-15.721-17.5-21.5a53.212 53.212 0 0 0 6 11c-2.119.007-3.953 1.174-5.5 3.5-1.934-1.919-1.767-3.419.5-4.5-1.333-.667-2.667-.667-4 0 .951.718 1.117 1.551.5 2.5a54.628 54.628 0 0 1-4.5-2c1.006-.896 1.006-1.562 0-2a4.457 4.457 0 0 0-1.5 2 127.818 127.818 0 0 0-2-3c-1.581 2.347-2.914 2.347-4 0-1.147.958-2.147.625-3-1 .123-4.508-1.044-8.508-3.5-12-4.075-9.829-9.409-18.829-16-27z"/><path style="opacity:1" fill="#303030" d="M218.5 80.5c.438-.065.772.101 1 .5a7.292 7.292 0 0 1-3 2c-2.61.147-4.944.98-7 2.5a44.043 44.043 0 0 0-2-1l-4-4c-2.527-2.533-2.527-5.033 0-7.5-.556-.383-.889-.883-1-1.5a38.841 38.841 0 0 1 6-3.5l-1-1c4.699-1.713 7.032-.213 7 4.5 3.307-.437 6.307.23 9 2-1.959 3.106-4.126 3.44-6.5 1a20.088 20.088 0 0 0-1.5 6h3z"/><path style="opacity:1" fill="#4b4b4b" d="M-.5 72.5v-2c2.687-.56 2.687.106 0 2z"/><path style="opacity:1" fill="#d0d0d0" d="M44.5 64.5h1a63.107 63.107 0 0 0 2 12c-.787 1.604-2.12 2.27-4 2a4.932 4.932 0 0 1-.5 3c-2.228-1.613-4.728-2.28-7.5-2-.17 1.322.163 2.489 1 3.5a42.549 42.549 0 0 0 8 3.5c-2.265 1.147-4.598 1.314-7 .5a22.11 22.11 0 0 0-7-5.5c-1.452-1.44-2.452-3.106-3-5 .124-2.082 1.124-3.582 3-4.5-.913-1.414-.913-2.914 0-4.5l2-2c3.569 1.457 6.902 3.457 10 6 1.671-2.01 2.338-4.343 2-7z"/><path style="opacity:1" fill="#454545" d="M104.5 71.5a117.971 117.971 0 0 1 10 18c-3.061 1.833-4.895 4.166-5.5 7-1.682-1.365-1.849-2.865-.5-4.5-1.82-.2-3.153-1.034-4-2.5 1.102-1.592.435-2.425-2-2.5.556-.383.889-.883 1-1.5 1.542.8 3.208 1.134 5 1-.011 1.517-.677 2.684-2 3.5 1.266.31 2.433.81 3.5 1.5.5-1.167 1.333-2 2.5-2.5-.881-.708-1.547-1.542-2-2.5-.838-3.013-2.338-5.68-4.5-8a6.544 6.544 0 0 1-3 3 31.91 31.91 0 0 0-1.5-6 3117.118 3117.118 0 0 0-6-7c3.498-.834 6.498.166 9 3z"/><path style="opacity:1" fill="#cbcbcb" d="M260.5 64.5v1a32.774 32.774 0 0 0-12 5.5c2.702.053 5.369-.447 8-1.5a4.94 4.94 0 0 1 2.5 1c.708-.88 1.542-1.547 2.5-2 1 .333 1.667 1 2 2 .548 2.032 1.881 3.032 4 3-.271 1.88.396 3.213 2 4v11h-4c-.573-3.159-.74-6.492-.5-10a32.367 32.367 0 0 0-4.5 3 36.365 36.365 0 0 0-4-7 15.686 15.686 0 0 0-4 2c.825.886 1.825 1.219 3 1v3c-1.667-1.333-3.333-1.333-5 0-.183-5.403-2.516-6.403-7-3-.963-.47-.963-1.136 0-2a18.664 18.664 0 0 0 3-5c-1.145-1.391-1.145-2.724 0-4 .713 1.935 1.713 2.268 3 1 1.21-.432 2.21-1.099 3-2a24.93 24.93 0 0 1 8-1z"/><path style="opacity:1" fill="#4c4c4c" d="M269.5 67.5v10c-1.604-.787-2.271-2.12-2-4-2.119.032-3.452-.968-4-3 1.142-2.472 3.142-3.472 6-3z"/><path style="opacity:1" fill="#5d5d5d" d="M30.5 67.5c-.913 1.586-.913 3.086 0 4.5-1.876.918-2.876 2.418-3 4.5-.845 1.171-1.511 2.505-2 4v1a16.8 16.8 0 0 1-3.5 4 60.908 60.908 0 0 1-6.5-4c.997.03 1.664-.47 2-1.5 1.22-5.04 3.886-9.04 8-12-.228-.399-.562-.565-1-.5 2.21-.701 4.044-2.035 5.5-4a8.434 8.434 0 0 1 .5 4z"/><path style="opacity:1" fill="#252525" d="M67.5 69.5c2.285 1.046 4.618 1.046 7 0a32.897 32.897 0 0 0-3 7c-.968 2.107-1.302 4.44-1 7v2l-3 1.5c10.662.5 21.328.666 32 .5v-5c.904.709 1.237 1.709 1 3h3c-.111.617-.444 1.117-1 1.5 2.435.075 3.102.908 2 2.5-4.218 1.036-4.718 2.702-1.5 5a11.47 11.47 0 0 0 2.5-1c1.78 4.005 2.113 8.005 1 12 3.098-.087 3.432.413 1 1.5a234.427 234.427 0 0 1-39.5-2.5l-1 1c-.278-.916-.778-1.582-1.5-2 1.531-1.425 1.198-2.091-1-2-.605-1.526-1.771-2.526-3.5-3-1.49 1.228-2.99 1.228-4.5 0 1.419-.951 3.085-1.284 5-1-.07-3.159-1.737-4.826-5-5 .246-5.729.912-11.396 2-17h3c2.933-.932 4.933-2.932 6-6z"/><path style="opacity:1" fill="#787878" d="M78.5 68.5c2.852.758 5.519.758 8 0 .722.418 1.222 1.084 1.5 2 .383-.556.883-.89 1.5-1l1 2c-.24 1.967.094 3.8 1 5.5a149.32 149.32 0 0 1-20-.5 32.897 32.897 0 0 1 3-7c1.208-.734 2.541-1.067 4-1z"/><path style="opacity:1" fill="#838383" d="M168.5 66.5h1a175.9 175.9 0 0 1 23 21c.412 2.473-.588 3.806-3 4-2.986-3.968-6.986-6.302-12-7-3.103 2.493-5.603 2.16-7.5-1-.71 1.473-1.876 2.14-3.5 2v-3h3c2.708.95 5.374.95 8 0a97.273 97.273 0 0 0-7-9.5l2-1c-1.939-1.432-3.272-3.265-4-5.5z"/><path style="opacity:1" fill="#484848" d="M16.5 58.5c1.068-.934 2.401-1.268 4-1 1.791-.134 3.458.2 5 1a32.242 32.242 0 0 1-4 10l.5 1c.708-.88 1.542-1.547 2.5-2 .438-.065.772.101 1 .5-4.114 2.96-6.78 6.96-8 12-.336 1.03-1.003 1.53-2 1.5a2.428 2.428 0 0 0-.5-2c-1.05 1.017-2.216 1.184-3.5.5 1.257-4.093 3.924-6.593 8-7.5.007-2.538.34-5.038 1-7.5-.915-2.534-2.249-4.7-4-6.5z"/><path style="opacity:1" fill="#3a3a3a" d="M237.5 70.5c.951 1.419 1.284 3.085 1 5h5c-.963.864-.963 1.53 0 2 4.484-3.403 6.817-2.403 7 3-4.815 1.572-9.148 3.905-13 7v-4c1.478.262 2.811-.071 4-1-1.402-1.343-1.069-2.176 1-2.5-1.544-1.187-3.211-1.52-5-1l2 1a18.437 18.437 0 0 1-6 .5c.17-1.322-.163-2.489-1-3.5 3.751-.582 5.418-2.75 5-6.5z"/><path style="opacity:1" fill="#989898" d="M90.5 71.5c1.27 1.609 2.27 3.442 3 5.5 2.833.446 5.5-.054 8-1.5a31.91 31.91 0 0 1 1.5 6 6.544 6.544 0 0 0 3-3c2.162 2.32 3.662 4.987 4.5 8h-2c-1.792.134-3.458-.2-5-1h-3c.237-1.291-.096-2.291-1-3-1.29.558-2.123 1.558-2.5 3-.019-2.808-1.019-5.14-3-7 .932 2.082 1.432 4.415 1.5 7a256.341 256.341 0 0 0-25-2c-.302-2.56.032-4.893 1-7 6.605.612 13.272.78 20 .5-.906-1.7-1.24-3.533-1-5.5z"/><path style="opacity:1" fill="#767676" d="M225.5 70.5c.992-.172 1.658.162 2 1 .874 3.014.541 6.014-1 9-3.037-1.148-5.037-.148-6 3-1.443.835-2.443 2.168-3 4a406.753 406.753 0 0 0-7 4 27.218 27.218 0 0 1-3-5v-2c.65.304 1.317.637 2 1 2.056-1.52 4.39-2.353 7-2.5a7.292 7.292 0 0 0 3-2c-.228-.399-.562-.565-1-.5 2.389-.554 4.055-2.054 5-4.5a4.932 4.932 0 0 1 3-.5c.134-1.791-.199-3.458-1-5z"/><path style="opacity:1" fill="#282828" d="M237.5 87.5c-3.567.568-5.901 2.568-7 6-1.238-.912-2.572-1.08-4-.5l-4.5 4.5c-.278-.916-.778-1.582-1.5-2v-1c-.714-2.246-.548-4.58.5-7 1.555 2.015 3.389 2.349 5.5 1 2.385-2.712 4.718-5.378 7-8a18.437 18.437 0 0 0 6-.5l-2-1c1.789-.52 3.456-.187 5 1-2.069.324-2.402 1.157-1 2.5-1.189.929-2.522 1.262-4 1v4z"/><path style="opacity:1" fill="#a5a5a5" d="M12.5 56.5c2.885-.306 5.552.027 8 1-1.599-.268-2.932.066-4 1a50.441 50.441 0 0 1-.5 10 14.437 14.437 0 0 1-5.5 2.5c-5.322 6.266-3.656 9.766 5 10.5a60.908 60.908 0 0 0 6.5 4 16.8 16.8 0 0 0 3.5-4c.433 2.785 1.766 5.119 4 7a35.704 35.704 0 0 1 8 6 157.108 157.108 0 0 1 8.5 6c1.356-.88 2.856-1.213 4.5-1 5.346 2.498 5.18 3.165-.5 2a27.648 27.648 0 0 0-4.5 2 68.016 68.016 0 0 1-18-6l-12-6c-1.208-4.73-4.374-7.397-9.5-8a16.813 16.813 0 0 1-6.5 2v-7c1.322.17 2.489-.163 3.5-1l1-6c3.771-2.621 6.938-5.788 9.5-9.5 1.58-2.26 1.247-4.094-1-5.5z"/><path style="opacity:1" fill="#333" d="M45.5 64.5h1a512.887 512.887 0 0 0 6.5 24 18.096 18.096 0 0 0 2.5-6.5 78.03 78.03 0 0 1-2-10.5c-.237-1.291.096-2.291 1-3a22.388 22.388 0 0 0 2.5 8c.232-1.237.732-2.237 1.5-3 .656-.778 1.489-1.444 2.5-2 .765.07 1.265.403 1.5 1-.904.709-1.237 1.709-1 3h-3a114.966 114.966 0 0 0-2 17c-1.235.221-2.235.888-3 2a44.358 44.358 0 0 0-2-1c-.596-5.958-1.93-11.625-4-17a63.107 63.107 0 0 1-2-12z"/><path style="opacity:1" fill="#b8b8b8" d="M135.5 72.5a92.538 92.538 0 0 1 17 6.5c5.949.484 11.616 1.65 17 3.5h-3v3c-1.014 1.174-2.347 1.84-4 2-5.011.166-10.011 0-15-.5a242.056 242.056 0 0 1-12-14.5z"/><path style="opacity:1" fill="#4f4f4f" d="M237.5 70.5c.418 3.75-1.249 5.918-5 6.5.837 1.011 1.17 2.178 1 3.5-4.602.273-8.935 1.273-13 3 .963-3.148 2.963-4.148 6-3 1.541-2.986 1.874-5.986 1-9h5a4.934 4.934 0 0 1 .5-3c2.501-1.556 4.001-.89 4.5 2z"/><path style="opacity:1" fill="#e0e0e0" d="M255.5 80.5c3.317 3.248 5.317 7.248 6 12-.256 2.293.077 4.46 1 6.5a20.499 20.499 0 0 1-2.5 3.5l-1-2c-.29 1.544-.956 2.877-2 4-.448-1.724-1.282-2.391-2.5-2a3.647 3.647 0 0 1 1-1.5c-1.945.128-3.778-.038-5.5-.5-1.039.744-1.539 1.744-1.5 3h-1c-2.312-4.312-5.645-7.645-10-10-.607.124-.94.457-1 1l-2-2c-1.562.233-2.895.9-4 2v-1c1.099-3.432 3.433-5.432 7-6 3.852-3.095 8.185-5.428 13-7 1.667-1.333 3.333-1.333 5 0z"/><path style="opacity:1" fill="#a4a4a4" d="M265.5 88.5a44.093 44.093 0 0 1-3 2l2 4c-1.278-.282-2.278-.949-3-2-.683-4.752-2.683-8.752-6-12v-3c-1.175.219-2.175-.114-3-1a15.686 15.686 0 0 1 4-2 36.365 36.365 0 0 1 4 7 32.367 32.367 0 0 1 4.5-3c-.24 3.508-.073 6.841.5 10z"/><path style="opacity:1" fill="#c7c7c7" d="M107.5 70.5c6.591 8.171 11.925 17.171 16 27-.065 3.607-1.731 5.94-5 7 2.461-3.142 2.628-6.475.5-10-.496 1.535-.33 3.035.5 4.5-.139 1.301-.805 2.134-2 2.5.17-4.316-.83-8.316-3-12a117.971 117.971 0 0 0-10-18 5.728 5.728 0 0 1 3-1z"/><path style="opacity:1" fill="gray" d="M110.5 77.5c2.208 1.418 3.042 3.418 2.5 6a23.417 23.417 0 0 1-2.5-6z"/><path style="opacity:1" fill="#727272" d="M70.5 83.5c8.388.26 16.722.927 25 2a78.627 78.627 0 0 1-25 0v-2z"/><path style="opacity:1" fill="#464646" d="M99.5 82.5v5a512.47 512.47 0 0 1-32-.5l3-1.5a78.627 78.627 0 0 0 25 0c-.068-2.585-.568-4.918-1.5-7 1.981 1.86 2.981 4.192 3 7 .377-1.442 1.21-2.442 2.5-3z"/><path style="opacity:1" fill="#838383" d="M15.5 91.5a56.61 56.61 0 0 0-16-3v-3a16.813 16.813 0 0 0 6.5-2c5.126.603 8.292 3.27 9.5 8z"/><path style="opacity:1" fill="#989898" d="M135.5 67.5c-.172.992.162 1.658 1 2a5.727 5.727 0 0 0-1 3 242.056 242.056 0 0 0 12 14.5c4.989.5 9.989.666 15 .5-4.581.61-8.581 1.276-12 2l-1 2-14-16c-1.376-1.582-2.376-3.415-3-5.5.248-1.75 1.248-2.582 3-2.5z"/><path style="opacity:1" fill="#404040" d="M233.5 80.5a2071.217 2071.217 0 0 1-7 8c-2.111 1.349-3.945 1.015-5.5-1-1.048 2.42-1.214 4.754-.5 7-4.325 2.008-7.658 1.008-10-3a406.753 406.753 0 0 1 7-4c.557-1.832 1.557-3.165 3-4 4.065-1.727 8.398-2.727 13-3z"/><path style="opacity:1" fill="#dfdfdf" d="M207.5 86.5a27.218 27.218 0 0 0 3 5c2.342 4.008 5.675 5.008 10 3v5c-2.196.09-4.363.423-6.5 1-1.434-.362-2.601-1.028-3.5-2-.815-1.337-1.982-2.337-3.5-3-.717.544-1.217 1.21-1.5 2-1.101 1.3-2.434 1.8-4 1.5a152.347 152.347 0 0 0-8-11.5c3.399-1.32 6.899-1.32 10.5 0 .704-2.227 1.871-2.56 3.5-1z"/><path style="opacity:1" fill="#727272" d="M108.5 86.5h2c.453.958 1.119 1.792 2 2.5-1.167.5-2 1.333-2.5 2.5a11.357 11.357 0 0 0-3.5-1.5c1.323-.816 1.989-1.983 2-3.5z"/><path style="opacity:1" fill="#515151" d="M-.5 88.5a56.61 56.61 0 0 1 16 3l12 6c-6.683-.335-12.683-2.502-18-6.5a50.441 50.441 0 0 0-10-.5v-2z"/><path style="opacity:1" fill="#dbdbdb" d="M25.5 80.5c2.888-.28 4.388 1.053 4.5 4 3.405 1.403 6.238 3.57 8.5 6.5 2.677.25 5.01 1.25 7 3-.763.944-1.763 1.444-3 1.5a20.228 20.228 0 0 0-5-1 35.704 35.704 0 0 0-8-6c-2.234-1.881-3.567-4.215-4-7v-1z"/><path style="opacity:1" fill="#c3c3c3" d="M27.5 76.5c.548 1.894 1.548 3.56 3 5a22.11 22.11 0 0 1 7 5.5c2.402.814 4.735.647 7-.5a42.549 42.549 0 0 1-8-3.5c-.837-1.011-1.17-2.178-1-3.5 2.772-.28 5.272.387 7.5 2 .483-.948.65-1.948.5-3 1.88.27 3.213-.396 4-2 2.07 5.375 3.404 11.042 4 17-.417.722-1.084 1.222-2 1.5 3.137-.108 5.47 1.059 7 3.5-1.765.961-3.765 1.295-6 1-1.644-.213-3.144.12-4.5 1a157.108 157.108 0 0 0-8.5-6c1.699.12 3.365.454 5 1 1.237-.056 2.237-.556 3-1.5-1.99-1.75-4.323-2.75-7-3-2.262-2.93-5.095-5.097-8.5-6.5-.112-2.947-1.612-4.28-4.5-4 .489-1.495 1.155-2.829 2-4z"/><path style="opacity:1" fill="#505050" d="M189.5 91.5a16.636 16.636 0 0 1-6 5c-.453-.958-1.119-1.792-2-2.5-4.595-2.306-9.262-3.973-14-5 1.173 3.11.673 3.277-1.5.5l-2.5 3a15.42 15.42 0 0 0-7-1c-1.49-1.78-3.49-2.447-6-2 3.419-.724 7.419-1.39 12-2 1.653-.16 2.986-.826 4-2 1.624.14 2.79-.527 3.5-2 1.897 3.16 4.397 3.493 7.5 1 5.014.698 9.014 3.032 12 7z"/><path style="opacity:1" fill="#747474" d="M150.5 89.5c2.51-.447 4.51.22 6 2v1c.065.438-.101.772-.5 1-.718-2.734-2.218-3.4-4.5-2a47.045 47.045 0 0 1 5 6.5c-.556.383-.889.883-1 1.5a10.177 10.177 0 0 1-3-3 18.915 18.915 0 0 1-3-5l1-2z"/><path style="opacity:1" fill="#555" d="M156.5 92.5a31.638 31.638 0 0 0 3 5 4.451 4.451 0 0 1-2 1.5c2.621 2.156 4.621 4.656 6 7.5 0 .667.333 1 1 1-.342.838-1.008 1.172-2 1a46.493 46.493 0 0 1-7-9c.111-.617.444-1.117 1-1.5a47.045 47.045 0 0 0-5-6.5c2.282-1.4 3.782-.734 4.5 2 .399-.228.565-.562.5-1z"/><path style="opacity:1" fill="#353535" d="M183.5 96.5a139.96 139.96 0 0 1-20 10c-1.379-2.844-3.379-5.344-6-7.5a4.451 4.451 0 0 0 2-1.5 31.638 31.638 0 0 1-3-5v-1a15.42 15.42 0 0 1 7 1l2.5-3c2.173 2.777 2.673 2.61 1.5-.5 4.738 1.027 9.405 2.694 14 5 .881.708 1.547 1.542 2 2.5z"/><path style="opacity:1" fill="#b8b8b8" d="m135.5 75.5 14 16a18.915 18.915 0 0 0 3 5c.091 2.198-.575 2.531-2 1a54.893 54.893 0 0 1-7-7c-3.21-5.39-7.044-10.39-11.5-15-.667-.667-.667-1.333 0-2l3 3c.399-.228.565-.562.5-1z"/><path style="opacity:1" fill="#a0a0a0" d="M56.5 92.5c3.263.174 4.93 1.841 5 5-1.915-.284-3.581.049-5 1-1.53-2.441-3.863-3.608-7-3.5.916-.278 1.583-.778 2-1.5.65.304 1.316.637 2 1 .765-1.112 1.765-1.779 3-2z"/><path style="opacity:1" fill="#2f2f2f" d="M104.5 89.5c.847 1.466 2.18 2.3 4 2.5-1.349 1.635-1.182 3.135.5 4.5.605-2.834 2.439-5.167 5.5-7 2.17 3.684 3.17 7.684 3 12a9.175 9.175 0 0 1-2 4.5c-5.052 3.839-10.718 5.339-17 4.5-2.787-.977-5.787-1.31-9-1a291.239 291.239 0 0 1-24-2v-4c.722.418 1.222 1.084 1.5 2l1-1a234.427 234.427 0 0 0 39.5 2.5c2.432-1.087 2.098-1.587-1-1.5 1.113-3.995.78-7.995-1-12a11.47 11.47 0 0 1-2.5 1c-3.218-2.298-2.718-3.964 1.5-5z"/><path style="opacity:1" fill="#545454" d="M265.5 88.5h4v10h-5c-.268 1.599.066 2.932 1 4-.06.543-.393.876-1 1-1.143-2.998-1.143-5.998 0-9l-2-4a44.093 44.093 0 0 0 3-2z"/><path style="opacity:1" fill="#565656" d="M210.5 98.5c-.597.639-1.43.972-2.5 1-1.376-.184-2.209-.85-2.5-2 .283-.79.783-1.456 1.5-2 1.518.663 2.685 1.663 3.5 3z"/><path style="opacity:1" fill="#2e2e2e" d="M234.5 92.5a43.955 43.955 0 0 1-5 14l-1-2.5a22.109 22.109 0 0 0 2-9.5c1.105-1.1 2.438-1.767 4-2z"/><path style="opacity:1" fill="#2b2b2b" d="M269.5 98.5v4h-4c-.934-1.068-1.268-2.401-1-4h5z"/><path style="opacity:1" fill="#2d2d2d" d="M-.5 90.5c3.35-.165 6.683.002 10 .5 5.317 3.998 11.317 6.165 18 6.5a68.016 68.016 0 0 0 18 6c2.976 2.391 5.976 2.391 9 0 4.786 1.409 5.12.742 1-2l1-1a424.5 424.5 0 0 1 8 1c-.869 2.217-1.202 4.55-1 7h-5v5c-.79 1.109-1.29 2.442-1.5 4-.743-1.941-.576-3.774.5-5.5-1.439-.991-2.439-2.324-3-4a43.983 43.983 0 0 1-15-5 12.494 12.494 0 0 0-7 0c5.949 4.796 10.949 9.629 15 14.5-1.086.12-1.753.787-2 2l-1.5 6c-.186-2.536-.686-4.869-1.5-7a47.73 47.73 0 0 0-6-10c-1.208.734-2.541 1.067-4 1 .45-3.724-1.217-5.891-5-6.5a86.39 86.39 0 0 1-21-5c2.432-1.088 2.098-1.588-1-1.5v5a33.55 33.55 0 0 1 10 2.5c.752.671 1.086 1.504 1 2.5 2.04 5.813 1.04 10.98-3 15.5-3.094.652-6.094.318-9-1a31.474 31.474 0 0 0-5-4.5v-26z"/><path style="opacity:1" fill="#c2c2c2" d="M192.5 87.5h1a152.347 152.347 0 0 1 8 11.5c1.566.3 2.899-.2 4-1.5.291 1.15 1.124 1.816 2.5 2 1.07-.028 1.903-.361 2.5-1 .899.972 2.066 1.638 3.5 2a29.513 29.513 0 0 1 6.5-1c-.284 1.915.049 3.581 1 5a28.208 28.208 0 0 0-1.5 4 2.428 2.428 0 0 1-.5-2v-4h-3a48.302 48.302 0 0 0-15.5 2l-2-4a4.934 4.934 0 0 0-.5 3v5c-1.25-.077-2.083-.744-2.5-2a9.454 9.454 0 0 1-2.5 1.5 47.235 47.235 0 0 0 4 6 18.473 18.473 0 0 0-2 3.5 18.453 18.453 0 0 0-6 .5 8.905 8.905 0 0 1-4 3l9 1.5a38.496 38.496 0 0 1-6 4c-1.425 1.531-2.091 1.198-2-1 .438.065.772-.101 1-.5l-3-1c1.196-.654 1.196-1.154 0-1.5a110.7 110.7 0 0 0-5.5 8 4.457 4.457 0 0 0-1.5-2l-6 3c-.418-.722-1.084-1.222-2-1.5.752-.671 1.086-1.504 1-2.5a18.453 18.453 0 0 0 6-.5 15.58 15.58 0 0 0-6-1.5c-3.105-2.775-5.438-6.108-7-10a165.871 165.871 0 0 0 29-18.5c-1.496-.507-2.663-.007-3.5 1.5-.399-.228-.565-.562-.5-1a45.473 45.473 0 0 0 6-5.5l-1-.5a189.99 189.99 0 0 1-15 10 64.88 64.88 0 0 1-14 6c-.667 0-1-.333-1-1a139.96 139.96 0 0 0 20-10 16.636 16.636 0 0 0 6-5c2.412-.194 3.412-1.527 3-4z"/><path style="opacity:1" fill="#555" d="M188.5 97.5a59.553 59.553 0 0 0-9 5c0-.667-.333-1-1-1a189.99 189.99 0 0 0 15-10l1 .5a45.473 45.473 0 0 1-6 5.5z"/><path style="opacity:1" fill="#262626" d="M247.5 103.5c.073 1.527-.594 2.527-2 3-2.169 2.098-3.835 4.598-5 7.5-1.717 1.559-3.717 2.392-6 2.5-5.897-1.006-6.397-3.006-1.5-6l5 2 1.5-1a39.396 39.396 0 0 1-7-5c1.539-3.95 2.872-7.95 4-12 .06-.543.393-.876 1-1 4.355 2.355 7.688 5.688 10 10z"/><path style="opacity:1" fill="#777" d="M230.5 93.5v1c-4.395 2.062-7.395 5.395-9 10-.951-1.419-1.284-3.085-1-5v-4c.722.418 1.222 1.084 1.5 2l4.5-4.5c1.428-.58 2.762-.412 4 .5z"/><path style="opacity:1" fill="#595959" d="M36.5 108.5c.086.996-.248 1.829-1 2.5-4.008 2.956-8.34 4.123-13 3.5-.157-4.145-2.157-6.812-6-8 .086-.996-.248-1.829-1-2.5a33.55 33.55 0 0 0-10-2.5v-5c3.098-.088 3.432.412 1 1.5a86.39 86.39 0 0 0 21 5c3.783.609 5.45 2.776 5 6.5 1.459.067 2.792-.266 4-1z"/><path style="opacity:1" fill="#1e1e1e" d="M58.5 113.5v1a20.676 20.676 0 0 1 1 5c.8 1.542 1.134 3.208 1 5 .584 2.785-.416 4.452-3 5a9.86 9.86 0 0 1-6-1 80.286 80.286 0 0 0-4-11c-4.051-4.871-9.051-9.704-15-14.5a12.494 12.494 0 0 1 7 0 43.983 43.983 0 0 0 15 5c.561 1.676 1.561 3.009 3 4-1.076 1.726-1.243 3.559-.5 5.5.21-1.558.71-2.891 1.5-4z"/><path style="opacity:1" fill="#7f7f7f" d="M56.5 98.5c1.51 1.228 3.01 1.228 4.5 0 1.729.474 2.895 1.474 3.5 3a424.5 424.5 0 0 0-8-1l-1 1c4.12 2.742 3.786 3.409-1 2-3.024 2.391-6.024 2.391-9 0a27.648 27.648 0 0 1 4.5-2c5.68 1.165 5.846.498.5-2 2.235.295 4.235-.039 6-1z"/><path style="opacity:1" fill="#dadada" d="M123.5 97.5c2.456 3.492 3.623 7.492 3.5 12 .853 1.625 1.853 1.958 3 1 1.086 2.347 2.419 2.347 4 0 .546.789 1.213 1.789 2 3a4.457 4.457 0 0 1 1.5-2c1.006.438 1.006 1.104 0 2a54.628 54.628 0 0 0 4.5 2c.617-.949.451-1.782-.5-2.5 1.333-.667 2.667-.667 4 0-2.267 1.081-2.434 2.581-.5 4.5 1.547-2.326 3.381-3.493 5.5-3.5a53.212 53.212 0 0 1-6-11c7.071 5.779 12.904 12.945 17.5 21.5a102.872 102.872 0 0 1-2-9 295.9 295.9 0 0 1-5.5-11l7 8c-.073 1.527.594 2.527 2 3 1.562 3.892 3.895 7.225 7 10v2c.086.996-.248 1.829-1 2.5.916.278 1.582.778 2 1.5-1.459-.067-2.792.266-4 1-1.898.596-3.565.596-5 0a27.603 27.603 0 0 1 5-1.5c-2.205-1.427-4.372-1.927-6.5-1.5l-1-2a19.887 19.887 0 0 0-3.5 4c-3.124-2.618-6.457-3.284-10-2a72.032 72.032 0 0 0-11-1c-1.624-.14-2.79.527-3.5 2l-5-2-1 1c-.221-3.443-1.221-3.776-3-1-.669-2.528-1.502-2.528-2.5 0l3 2.5c-3.363-.267-6.197-1.767-8.5-4.5a106.191 106.191 0 0 1-2.5-6.5 128.507 128.507 0 0 0-16-.5l-16-2a218.162 218.162 0 0 1-22-3v-6h3a358.796 358.796 0 0 0 21 3h12c9.243 2.143 17.243-.19 24-7 3.269-1.06 4.935-3.393 5-7z"/><path style="opacity:1" fill="#626262" d="M64.5 101.5c2.198-.091 2.531.575 1 2v4c-.342.838-1.008 1.172-2 1-.202-2.45.131-4.783 1-7z"/><path style="opacity:1" fill="#393939" d="M178.5 101.5c.667 0 1 .333 1 1a339.04 339.04 0 0 0-15.5 8c-.383-.556-.883-.889-1.5-1v-1c.992.172 1.658-.162 2-1a64.88 64.88 0 0 0 14-6z"/><path style="opacity:1" fill="#8b8b8b" d="M216.5 102.5a160.456 160.456 0 0 0-17 4c.237-1.291-.096-2.291-1-3a4.934 4.934 0 0 1 .5-3l2 4a48.302 48.302 0 0 1 15.5-2z"/><path style="opacity:1" fill="#444" d="M216.5 102.5h3v4h-5c-2-1.333-4-1.333-6 0-1.278.282-2.278.949-3 2-.235-.597-.735-.93-1.5-1-1.597 1.385-3.43 2.051-5.5 2v-6c.904.709 1.237 1.709 1 3a160.456 160.456 0 0 1 17-4z"/><path style="opacity:1" fill="#9f9f9f" d="M152.5 96.5a10.177 10.177 0 0 0 3 3 46.493 46.493 0 0 0 7 9v1c.237 1.291-.096 2.291-1 3l-7-8a699.275 699.275 0 0 1-4-7c1.425 1.531 2.091 1.198 2-1z"/><path style="opacity:1" fill="#7f7f7f" d="M163.5 115.5c-1.406-.473-2.073-1.473-2-3 .904-.709 1.237-1.709 1-3 .617.111 1.117.444 1.5 1a339.04 339.04 0 0 1 15.5-8 59.553 59.553 0 0 1 9-5c-.065.438.101.772.5 1 .837-1.507 2.004-2.007 3.5-1.5a165.871 165.871 0 0 1-29 18.5z"/><path style="opacity:1" fill="#767676" d="M208.5 106.5a25.194 25.194 0 0 0 3 5.5c-.51 1.826-1.344 1.993-2.5.5a6.802 6.802 0 0 1-1.5 3c-1.444-2.108-2.11-4.441-2-7 .722-1.051 1.722-1.718 3-2z"/><path style="opacity:1" fill="#595959" d="M245.5 106.5c-.945 4.672-3.111 8.672-6.5 12-.383-.556-.883-.889-1.5-1-1.291.237-2.291-.096-3-1 2.283-.108 4.283-.941 6-2.5 1.165-2.902 2.831-5.402 5-7.5z"/><path style="opacity:1" fill="#9d9d9d" d="M65.5 107.5a291.239 291.239 0 0 0 24 2l-7 2a358.796 358.796 0 0 1-21-3h2c.992.172 1.658-.162 2-1z"/><path style="opacity:1" fill="#606060" d="M89.5 109.5c3.213-.31 6.213.023 9 1-1.068.934-2.401 1.268-4 1h-12l7-2z"/><path style="opacity:1" fill="#929292" d="M118.5 104.5c-6.757 6.81-14.757 9.143-24 7 1.599.268 2.932-.066 4-1 6.282.839 11.948-.661 17-4.5a9.175 9.175 0 0 0 2-4.5c1.195-.366 1.861-1.199 2-2.5-.83-1.465-.996-2.965-.5-4.5 2.128 3.525 1.961 6.858-.5 10z"/><path style="opacity:1" fill="#d5d5d5" d="M261.5 92.5c.722 1.051 1.722 1.718 3 2-1.143 3.002-1.143 6.002 0 9 .607-.124.94-.457 1-1h4v11c-1.544-.203-2.878-.87-4-2a31.116 31.116 0 0 0-1 11 643.04 643.04 0 0 1-17 .5c4.295.912 8.628 1.579 13 2a4.457 4.457 0 0 1 2 1.5 62.744 62.744 0 0 1-11 1.5c1.196.654 1.196 1.154 0 1.5a514.367 514.367 0 0 0-4-3 4.934 4.934 0 0 1-3-.5c8.906-.439 9.072-1.272.5-2.5-3.096-1.806-3.096-3.472 0-5 2.579 1.847 5.412 2.347 8.5 1.5a47.129 47.129 0 0 1-7-6c2.003.419 4.003 1.253 6 2.5-.44-1.453.226-2.619 2-3.5-2.069-.324-2.402-1.158-1-2.5-1.302-1.701-2.969-2.868-5-3.5 1.291-1.292 1.291-2.458 0-3.5-.039-1.256.461-2.256 1.5-3 1.722.462 3.555.628 5.5.5a3.647 3.647 0 0 0-1 1.5c1.218-.391 2.052.276 2.5 2 1.044-1.123 1.71-2.456 2-4l1 2a20.499 20.499 0 0 0 2.5-3.5c-.923-2.04-1.256-4.207-1-6.5z"/><path style="opacity:1" fill="#4a4a4a" d="M16.5 106.5c3.843 1.188 5.843 3.855 6 8 4.66.623 8.992-.544 13-3.5.752-.671 1.086-1.504 1-2.5a47.73 47.73 0 0 1 6 10l-5 2c-1.431-1.28-2.098-2.947-2-5 5.005.057 5.172-.61.5-2-2.27.548-4.103 1.714-5.5 3.5.26 1.261.926 2.261 2 3l-7-1c.88.708 1.547 1.542 2 2.5-2.606-.636-5.106-.636-7.5 0l-1-5-1.5 3-1 2c-2.358 2.736-5.358 3.57-9 2.5-3.097-1.273-5.764-3.107-8-5.5v-2a31.474 31.474 0 0 1 5 4.5c2.906 1.318 5.906 1.652 9 1 4.04-4.52 5.04-9.687 3-15.5z"/><path style="opacity:1" fill="#adadad" d="M214.5 106.5c-1.248.834-1.915 2.167-2 4l.5 4a47.02 47.02 0 0 1 5.5 3.5 4.934 4.934 0 0 1-3 .5c.278 1.846-.389 3.18-2 4-1.72-1.455-3.72-2.288-6-2.5 7.812.15 8.646-1.684 2.5-5.5-2.585 4.023-6.085 5.023-10.5 3-.023-2.1.644-3.933 2-5.5-.924-1.811-1.757-1.645-2.5.5a4.934 4.934 0 0 1-.5-3c2.07.051 3.903-.615 5.5-2 .765.07 1.265.403 1.5 1-.11 2.559.556 4.892 2 7a6.802 6.802 0 0 0 1.5-3c1.156 1.493 1.99 1.326 2.5-.5a25.194 25.194 0 0 1-3-5.5c2-1.333 4-1.333 6 0z"/><path style="opacity:1" fill="#7a7a7a" d="M198.5 108.5v1a4.934 4.934 0 0 0 .5 3c.743-2.145 1.576-2.311 2.5-.5-1.356 1.567-2.023 3.4-2 5.5h-4a18.473 18.473 0 0 1 2-3.5 47.235 47.235 0 0 1-4-6 9.454 9.454 0 0 0 2.5-1.5c.417 1.256 1.25 1.923 2.5 2z"/><path style="opacity:1" fill="#cecece" d="m234.5 92.5 2 2a126.563 126.563 0 0 1-4 12 39.396 39.396 0 0 0 7 5l-1.5 1-5-2c-4.897 2.994-4.397 4.994 1.5 6 .709.904 1.709 1.237 3 1-.321 1.548-1.321 2.215-3 2l-6-2c-1.1-1.058-2.434-1.892-4-2.5.951-.718 1.117-1.551.5-2.5-1.903 1.941-2.736 4.274-2.5 7-2.998 1.342-5.332 2.842-7 4.5-6.41 1.032-12.41-.134-18-3.5-1.022.355-1.689 1.022-2 2h-1l-9-1.5a8.905 8.905 0 0 0 4-3 18.453 18.453 0 0 1 6-.5h4c4.415 2.023 7.915 1.023 10.5-3 6.146 3.816 5.312 5.65-2.5 5.5 2.28.212 4.28 1.045 6 2.5 1.611-.82 2.278-2.154 2-4a4.934 4.934 0 0 0 3-.5 47.02 47.02 0 0 0-5.5-3.5l-.5-4c.085-1.833.752-3.166 2-4h5a2.428 2.428 0 0 0 .5 2c.41-1.401.91-2.734 1.5-4 1.605-4.605 4.605-7.938 9-10a22.109 22.109 0 0 1-2 9.5l1 2.5a43.955 43.955 0 0 0 5-14z"/><path style="opacity:1" fill="#383838" d="M227.5 108.5c.876-.131 1.543.202 2 1-2.792 5.335-3.458 5.002-2-1z"/><path style="opacity:1" fill="#7e7e7e" d="M228.5 117.5c-.064 2.04-.231 4.373-.5 7-.383.556-.883.889-1.5 1-.203-1.544-.87-2.878-2-4 .985-1.598 1.151-3.265.5-5-.377 1.442-1.21 2.442-2.5 3-.236-2.726.597-5.059 2.5-7 .617.949.451 1.782-.5 2.5 1.566.608 2.9 1.442 4 2.5z"/><path style="opacity:1" fill="#9e9e9e" d="M247.5 103.5h1c1.291 1.042 1.291 2.208 0 3.5 2.031.632 3.698 1.799 5 3.5-1.402 1.342-1.069 2.176 1 2.5-1.774.881-2.44 2.047-2 3.5-1.997-1.247-3.997-2.081-6-2.5a47.129 47.129 0 0 0 7 6c-3.088.847-5.921.347-8.5-1.5-3.096 1.528-3.096 3.194 0 5 8.572 1.228 8.406 2.061-.5 2.5a4.934 4.934 0 0 0 3 .5c-.763.768-1.763 1.268-3 1.5l1 1-6 1c3.686.559 7.353 1.226 11 2-4.632.382-8.965.549-13 .5-1.363-4.132-2.363-8.465-3-13 1.679.215 2.679-.452 3-2 .617.111 1.117.444 1.5 1 3.389-3.328 5.555-7.328 6.5-12 1.406-.473 2.073-1.473 2-3z"/><path style="opacity:1" fill="#222" d="M-.5 118.5c2.236 2.393 4.903 4.227 8 5.5 3.642 1.07 6.642.236 9-2.5 1.059 2.226.892 4.559-.5 7a61.705 61.705 0 0 1-5.5 8.5c2.38 1.247 2.047 1.58-1 1a10.527 10.527 0 0 0-3-2.5h-7v-17z"/><path style="opacity:1" fill="#bdbdbd" d="m80.5 117.5 16 2c-.418.722-1.084 1.222-2 1.5a36.005 36.005 0 0 1 4.5 3.5c.492 1.049.326 2.049-.5 3a10.761 10.761 0 0 1 2.5 3l3-1c-1.119 7.444-.119 7.777 3 1 1.163 1.785 1.83 3.785 2 6 .667-2.667 1.333-2.667 2 0l1-1c1.42 1.922 3.253 3.255 5.5 4a39.447 39.447 0 0 0 4.5 6c1.117-.165 2.284-.498 3.5-1-.516 1.258.15 2.258 2 3 2.242-.587 4.409-.921 6.5-1a15.736 15.736 0 0 1 3.5 4h-48c-.734-1.208-1.067-2.541-1-4a36.608 36.608 0 0 0 7-4 293.179 293.179 0 0 1-3-6 4.94 4.94 0 0 1 1-2.5c-2.964-.84-3.297-1.84-1-3a56.937 56.937 0 0 1-7.5-10.5c-.914 1.154-1.747.987-2.5-.5l1-1c-1.237-.232-2.237-.732-3-1.5z"/><path style="opacity:1" fill="#c4c4c4" d="M96.5 119.5c5.344-.166 10.677.001 16 .5a106.191 106.191 0 0 0 2.5 6.5c2.303 2.733 5.137 4.233 8.5 4.5l-3-2.5c.998-2.528 1.831-2.528 2.5 0 1.779-2.776 2.779-2.443 3 1l1-1 5 2c.71-1.473 1.876-2.14 3.5-2v1c-.617.111-1.117.444-1.5 1l-1 6c-.796 2.539-.629 4.872.5 7 2.762.959 5.262.959 7.5 0l1.5 3c4.484 2.941 8.15 2.275 11-2 1.985-.359 2.651-1.192 2-2.5a9.454 9.454 0 0 0 2.5-1.5l3.5-7a259.021 259.021 0 0 0 2 17h-26a15.736 15.736 0 0 0-3.5-4c-2.091.079-4.258.413-6.5 1-1.85-.742-2.516-1.742-2-3-1.216.502-2.383.835-3.5 1a39.447 39.447 0 0 1-4.5-6c-2.247-.745-4.08-2.078-5.5-4l-1 1c-.667-2.667-1.333-2.667-2 0-.17-2.215-.837-4.215-2-6-3.119 6.777-4.119 6.444-3-1l-3 1a10.761 10.761 0 0 0-2.5-3c.826-.951.992-1.951.5-3a36.005 36.005 0 0 0-4.5-3.5c.916-.278 1.582-.778 2-1.5z"/><path style="opacity:1" fill="#7b7b7b" d="M269.5 113.5v36a2298.005 2298.005 0 0 1-2-16c-1.187 1.153-2.187 1.153-3 0 .709-.904 1.709-1.237 3-1a32.462 32.462 0 0 0-.5-8c-.708-.881-1.542-1.547-2.5-2a31.116 31.116 0 0 1 1-11c1.122 1.13 2.456 1.797 4 2z"/><path style="opacity:1" fill="#626262" d="M37.5 120.5c.489 1.495 1.155 2.829 2 4-.89 2.428-1.223 4.762-1 7-2.561-1.58-4.561-3.58-6-6a796.928 796.928 0 0 1-5-4c-.453-.958-1.12-1.792-2-2.5l7 1c-1.074-.739-1.74-1.739-2-3 1.397-1.786 3.23-2.952 5.5-3.5 4.672 1.39 4.505 2.057-.5 2-.098 2.053.569 3.72 2 5z"/><path style="opacity:1" fill="#a7a7a7" d="M226.5 125.5c0 .667-.333 1-1 1-4.863-.319-9.53.014-14 1a138.705 138.705 0 0 0-9-3c-1.938-1.663-4.272-2.329-7-2 .311-.978.978-1.645 2-2 5.59 3.366 11.59 4.532 18 3.5 1.668-1.658 4.002-3.158 7-4.5 1.29-.558 2.123-1.558 2.5-3 .651 1.735.485 3.402-.5 5 1.13 1.122 1.797 2.456 2 4z"/><path style="opacity:1" fill="#575757" d="M170.5 125.5a15.58 15.58 0 0 1 6 1.5 18.453 18.453 0 0 1-6 .5v-2z"/><path style="opacity:1" fill="#838383" d="M211.5 127.5c4.47-.986 9.137-1.319 14-1a31.613 31.613 0 0 1-9 3 16.339 16.339 0 0 1-5-2z"/><path style="opacity:1" fill="#a6a6a6" d="M58.5 114.5a218.162 218.162 0 0 0 22 3c.763.768 1.763 1.268 3 1.5l-1 1c.753 1.487 1.586 1.654 2.5.5a56.937 56.937 0 0 0 7.5 10.5c-2.297 1.16-1.964 2.16 1 3a4.94 4.94 0 0 0-1 2.5c.96 1.977 1.96 3.977 3 6a36.608 36.608 0 0 1-7 4c.077-1.25.744-2.083 2-2.5a22.796 22.796 0 0 0-5-8c2.52-2.852 1.853-5.019-2-6.5-1.39-1.669-1.723-3.336-1-5-.825-.886-1.825-1.219-3-1 .273-1.951-.393-3.451-2-4.5a156.154 156.154 0 0 0-10-.5c-1.299.59-2.132 1.59-2.5 3-1.4-1.692-3.234-2.359-5.5-2a20.676 20.676 0 0 0-1-5z"/><path style="opacity:1" fill="#3d3d3d" d="m228.5 117.5 6 2c.637 4.535 1.637 8.868 3 13l1 2a108.257 108.257 0 0 0-18-3l-4-2a31.613 31.613 0 0 0 9-3c.667 0 1-.333 1-1 .617-.111 1.117-.444 1.5-1 .269-2.627.436-4.96.5-7z"/><path style="opacity:1" fill="#7b7b7b" d="M135.5 129.5v-1c3.698.052 7.365.386 11 1-2.921.981-6.588.981-11 0z"/><path style="opacity:1" fill="#d9d9d9" d="M202.5 124.5c2.943.867 5.943 1.867 9 3a16.339 16.339 0 0 0 5 2l4 2c1.409 1.917 3.076 3.75 5 5.5a12.494 12.494 0 0 1-7 0c-4.284-3.072-8.951-3.905-14-2.5a43.836 43.836 0 0 1-2-1c-1.673 1.586-3.673 2.253-6 2v-4c.752-1.6 1.752-3.1 3-4.5a3.647 3.647 0 0 1-1-1.5c1.189-.929 2.522-1.262 4-1z"/><path style="opacity:1" fill="#c9c9c9" d="M162.5 132.5c-.667 0-1 .333-1 1l-3.5 7a9.454 9.454 0 0 1-2.5 1.5c.651 1.308-.015 2.141-2 2.5a84.902 84.902 0 0 0-.5-13 227.717 227.717 0 0 1-1.5 15h-9l-1.5-3c-2.238.959-4.738.959-7.5 0a76.32 76.32 0 0 1 2-14c4.412.981 8.079.981 11 0 3.543-1.284 6.876-.618 10 2a19.887 19.887 0 0 1 3.5-4l1 2c2.128-.427 4.295.073 6.5 1.5a27.603 27.603 0 0 0-5 1.5z"/><path style="opacity:1" fill="#4a4a4a" d="M32.5 125.5c1.439 2.42 3.439 4.42 6 6-.223-2.238.11-4.572 1-7 3.268 5.468 1.602 8.801-5 10 4.187 4.6 5.187 9.934 3 16h-5c.93-.815 1.93-1.648 3-2.5a3.646 3.646 0 0 1-1-1.5c1.512-.749 2.512-1.916 3-3.5a16.417 16.417 0 0 1-4-7.5c-2.817-3.035-4.817-2.535-6 1.5 1.123 1.044 2.456 1.71 4 2-4.123 1.915-8.123 1.582-12-1 7.911-1.418 7.911-2.751 0-4l6-1c-1.981-.605-2.315-1.605-1-3a14.838 14.838 0 0 1-4-3.5c1.913-.551 3.913-.718 6-.5l-4-2c3.187-.108 6.187.725 9 2.5.607-.124.94-.457 1-1z"/><path style="opacity:1" fill="#5c5c5c" d="M194.5 122.5h1c2.728-.329 5.062.337 7 2-1.478-.262-2.811.071-4 1a3.647 3.647 0 0 0 1 1.5 18.714 18.714 0 0 0-3 4.5h-1a8.43 8.43 0 0 0-.5-4 29.964 29.964 0 0 1-6 7c-.333-1.547.167-2.88 1.5-4-1.131-1.104-1.965-.771-2.5 1-.384-1.697-.218-3.363.5-5a38.496 38.496 0 0 0 6-4z"/><path style="opacity:1" fill="#c3c3c3" d="M264.5 122.5c.958.453 1.792 1.119 2.5 2 .497 2.646.664 5.313.5 8-1.291-.237-2.291.096-3 1-1.975-.322-3.642-.322-5 0-6.985.589-13.985.922-21 1l-1-2c4.035.049 8.368-.118 13-.5a190.728 190.728 0 0 0-11-2l6-1-1-1c1.237-.232 2.237-.732 3-1.5 1.315.976 2.648 1.976 4 3 1.196-.346 1.196-.846 0-1.5a62.744 62.744 0 0 0 11-1.5 4.457 4.457 0 0 0-2-1.5 116.123 116.123 0 0 1-13-2 643.04 643.04 0 0 0 17-.5z"/><path style="opacity:1" fill="#828282" d="M186.5 125.5a14.698 14.698 0 0 0-3.5 3 44.368 44.368 0 0 1-.5 10c-1.557-2.654-3.39-5.32-5.5-8a25.724 25.724 0 0 1-7.5 3.5l3 1c1.196.654 1.196 1.154 0 1.5a31.71 31.71 0 0 0-6-2c-.438.065-.772-.101-1-.5.916-.278 1.582-.778 2-1.5 1.208-.734 2.541-1.067 4-1l6-3a4.457 4.457 0 0 1 1.5 2 110.7 110.7 0 0 1 5.5-8c1.196.346 1.196.846 0 1.5l3 1c-.228.399-.562.565-1 .5z"/><path style="opacity:1" fill="#505050" d="M53.5 130.5a158.751 158.751 0 0 1 4 20h-6c-1.01-1.439-.676-2.772 1-4-.825-.886-1.825-1.219-3-1 .214-1.644-.12-3.144-1-4.5l2-1c-.194-1.43-.194-2.93 0-4.5a59.662 59.662 0 0 0-6-.5c3.496-.656 6.496-2.156 9-4.5z"/><path style="opacity:1" fill="#3a3a3a" d="M186.5 125.5c-.091 2.198.575 2.531 2 1-.718 1.637-.884 3.303-.5 5 .535-1.771 1.369-2.104 2.5-1-1.333 1.12-1.833 2.453-1.5 4a29.964 29.964 0 0 0 6-7 8.43 8.43 0 0 1 .5 4c.419 2.825-.581 4.991-3 6.5.228.399.562.565 1 .5.709.904 1.709 1.237 3 1v11h-12c.589-4.471-.077-8.471-2-12 .541-3.249.707-6.582.5-10a14.698 14.698 0 0 1 3.5-3z"/><path style="opacity:1" fill="#a5a5a5" d="M195.5 131.5h1v4c2.327.253 4.327-.414 6-2 .683.363 1.35.696 2 1 0 .667.333 1 1 1-.803.923-.97 1.923-.5 3 7.498 3.985 7.331 4.652-.5 2-1.603-1.096-3.103-2.43-4.5-4a14.828 14.828 0 0 1-6.5 2c-.438.065-.772-.101-1-.5 2.419-1.509 3.419-3.675 3-6.5z"/><path style="opacity:1" fill="#c4c4c4" d="M220.5 131.5a108.257 108.257 0 0 1 18 3c1.014 1.174 2.347 1.84 4 2 .841 1.879 1.175 3.879 1 6a4.934 4.934 0 0 0-3 .5c1.937.122 3.27.955 4 2.5-3.854-1.401-8.187-2.234-13-2.5-1.134-1.016-.801-1.683 1-2a1345.47 1345.47 0 0 1-20.5-4.5c-1.011.556-1.844 1.222-2.5 2l-4-3c-.667 0-1-.333-1-1 5.049-1.405 9.716-.572 14 2.5 2.333.667 4.667.667 7 0-1.924-1.75-3.591-3.583-5-5.5z"/><path style="opacity:1" fill="#727272" d="M259.5 133.5c.763.768 1.763 1.268 3 1.5l-7 1c.951.718 1.117 1.551.5 2.5-4.11-3.04-8.61-3.706-13.5-2-1.653-.16-2.986-.826-4-2a287.942 287.942 0 0 0 21-1z"/><path style="opacity:1" fill="gray" d="M60.5 124.5c.904.709 1.237 1.709 1 3a35.98 35.98 0 0 0 9.5-1c2.579.136 4.745 1.136 6.5 3 .68 2.86 2.013 5.36 4 7.5-1.211 1.113-1.211 2.28 0 3.5a31.183 31.183 0 0 1 6 4.5c-3.088.579-5.755 1.913-8 4 .556.383.89.883 1 1.5h-2c.87-3.039.37-6.039-1.5-9-5.89-3.05-11.723-2.384-17.5 2-.338 2.155-.338 4.489 0 7h-2a158.751 158.751 0 0 0-4-20c1.599.268 2.932-.066 4-1 2.584-.548 3.584-2.215 3-5z"/><path style="opacity:1" fill="#949494" d="M88.5 146.5c-.067 1.459.266 2.792 1 4h-9c-.11-.617-.444-1.117-1-1.5 2.245-2.087 4.912-3.421 8-4a31.183 31.183 0 0 0-6-4.5c-1.211-1.22-1.211-2.387 0-3.5-1.987-2.14-3.32-4.64-4-7.5-1.755-1.864-3.921-2.864-6.5-3a35.98 35.98 0 0 1-9.5 1c.237-1.291-.096-2.291-1-3 .134-1.792-.2-3.458-1-5 2.266-.359 4.1.308 5.5 2 .368-1.41 1.201-2.41 2.5-3 3.165.051 6.498.218 10 .5 1.607 1.049 2.273 2.549 2 4.5 1.175-.219 2.175.114 3 1-.723 1.664-.39 3.331 1 5 3.853 1.481 4.52 3.648 2 6.5a22.796 22.796 0 0 1 5 8c-1.256.417-1.923 1.25-2 2.5z"/><path style="opacity:1" fill="#343434" d="M17.5 119.5c1.026 2.957 1.693 6.124 2 9.5-1.01 3.535-1.01 7.035 0 10.5a8.193 8.193 0 0 0 4 2.5l-2 1c2.83.048 5.163 1.048 7 3l-2 1 4 1c-1.256.417-1.923 1.25-2 2.5h-19c-.286-4.542-1.62-8.708-4-12.5.752-.671 1.086-1.504 1-2.5a10.527 10.527 0 0 1 3 2.5c3.047.58 3.38.247 1-1a61.705 61.705 0 0 0 5.5-8.5c1.392-2.441 1.559-4.774.5-7l1-2z"/><path style="opacity:1" fill="#333" d="M47.5 117.5a80.286 80.286 0 0 1 4 11 9.86 9.86 0 0 0 6 1c-1.068.934-2.401 1.268-4 1-2.504 2.344-5.504 3.844-9 4.5 2.157.078 4.157.245 6 .5-.194 1.57-.194 3.07 0 4.5l-2 1c.88 1.356 1.214 2.856 1 4.5 1.175-.219 2.175.114 3 1-1.676 1.228-2.01 2.561-1 4h-14c2.187-6.066 1.187-11.4-3-16 6.602-1.199 8.268-4.532 5-10-.845-1.171-1.511-2.505-2-4l5-2c.814 2.131 1.314 4.464 1.5 7l1.5-6c.247-1.213.914-1.88 2-2z"/><path style="opacity:1" fill="#848484" d="M135.5 129.5a76.32 76.32 0 0 0-2 14c-1.129-2.128-1.296-4.461-.5-7l1-6c.383-.556.883-.889 1.5-1z"/><path style="opacity:1" fill="#7e7e7e" d="M-.5 135.5h7c.086.996-.248 1.829-1 2.5 2.38 3.792 3.714 7.958 4 12.5h-1v-4a33.692 33.692 0 0 1-9-2v-9z"/><path style="opacity:1" fill="#404040" d="M27.5 121.5a796.928 796.928 0 0 0 5 4c-.06.543-.393.876-1 1-2.813-1.775-5.813-2.608-9-2.5l4 2c-2.087-.218-4.087-.051-6 .5a14.838 14.838 0 0 0 4 3.5c-1.315 1.395-.981 2.395 1 3l-6 1c7.911 1.249 7.911 2.582 0 4 3.877 2.582 7.877 2.915 12 1-1.544-.29-2.877-.956-4-2 1.183-4.035 3.183-4.535 6-1.5a16.417 16.417 0 0 0 4 7.5c-.488 1.584-1.488 2.751-3 3.5.21.586.543 1.086 1 1.5a81.819 81.819 0 0 0-3 2.5h-4c.077-1.25.744-2.083 2-2.5l-4-1 2-1c-1.837-1.952-4.17-2.952-7-3l2-1a8.193 8.193 0 0 1-4-2.5c-1.01-3.465-1.01-6.965 0-10.5-.307-3.376-.974-6.543-2-9.5l1.5-3 1 5c2.394-.636 4.894-.636 7.5 0z"/><path style="opacity:1" fill="#7c7c7c" d="M146.5 138.5c1.478-.262 2.811.071 4 1-1.963 2.694-3.297 2.361-4-1z"/><path style="opacity:1" fill="#2a2a2a" d="M182.5 138.5c-.453.958-1.119 1.792-2 2.5 1.904 2.877 2.904 6.044 3 9.5h-15a6.846 6.846 0 0 0-1-4c13.086-2.073 13.086-3.073 0-3a41.73 41.73 0 0 1-1-9 31.71 31.71 0 0 1 6 2c1.196-.346 1.196-.846 0-1.5l-3-1a25.724 25.724 0 0 0 7.5-3.5c2.11 2.68 3.943 5.346 5.5 8z"/><path style="opacity:1" fill="#9d9d9d" d="m244.5 145.5 4 5h-14a38.47 38.47 0 0 0-5-5.5 72.812 72.812 0 0 1-16-5.5c-.963.47-.963 1.137 0 2-1.904-.238-3.238-1.238-4-3 .656-.778 1.489-1.444 2.5-2a1345.47 1345.47 0 0 0 20.5 4.5c-1.801.317-2.134.984-1 2 4.813.266 9.146 1.099 13 2.5z"/><path style="opacity:1" fill="#595959" d="M162.5 132.5c1.435.596 3.102.596 5 0-.418.722-1.084 1.222-2 1.5.228.399.562.565 1 .5a41.73 41.73 0 0 0 1 9c13.086-.073 13.086.927 0 3a6.846 6.846 0 0 1 1 4h-5a259.021 259.021 0 0 1-2-17c0-.667.333-1 1-1z"/><path style="opacity:1" fill="#b4b4b4" d="M264.5 133.5c.813 1.153 1.813 1.153 3 0 .667 5.485 1.333 10.819 2 16v1h-8a35.524 35.524 0 0 0-5.5-4c-1.334 1.378-1.501 2.711-.5 4h-7l-4-5c-.73-1.545-2.063-2.378-4-2.5a4.934 4.934 0 0 1 3-.5c.175-2.121-.159-4.121-1-6 4.89-1.706 9.39-1.04 13.5 2 .617-.949.451-1.782-.5-2.5l7-1c-1.237-.232-2.237-.732-3-1.5 1.358-.322 3.025-.322 5 0z"/><path style="opacity:1" fill="#585858" d="M78.5 150.5h-19c-.338-2.511-.338-4.845 0-7 5.777-4.384 11.61-5.05 17.5-2 1.87 2.961 2.37 5.961 1.5 9z"/><path style="opacity:1" fill="gray" d="M153.5 144.5c-2.85 4.275-6.516 4.941-11 2h9a227.717 227.717 0 0 0 1.5-15c.499 4.321.666 8.654.5 13z"/><path style="opacity:1" fill="#6c6c6c" d="m205.5 135.5 4 3c.762 1.762 2.096 2.762 4 3 .792 1.757 2.125 3.091 4 4 .674 1.695 1.341 3.362 2 5h-3a81.316 81.316 0 0 0-3-2.5 4.457 4.457 0 0 0 2-1.5 62.195 62.195 0 0 1-10-3.5c-.752-.671-1.086-1.504-1-2.5 7.831 2.652 7.998 1.985.5-2-.47-1.077-.303-2.077.5-3z"/><path style="opacity:1" fill="#a1a1a1" d="M-.5 144.5a33.692 33.692 0 0 0 9 2v4h-9v-6z"/><path style="opacity:1" fill="#6a6a6a" d="M182.5 138.5c1.923 3.529 2.589 7.529 2 12h-1c-.096-3.456-1.096-6.623-3-9.5.881-.708 1.547-1.542 2-2.5z"/><path style="opacity:1" fill="#888" d="M204.5 140.5c-.086.996.248 1.829 1 2.5a62.195 62.195 0 0 0 10 3.5 4.457 4.457 0 0 1-2 1.5 81.316 81.316 0 0 1 3 2.5h-20v-11c-1.291.237-2.291-.096-3-1a14.828 14.828 0 0 0 6.5-2c1.397 1.57 2.897 2.904 4.5 4z"/><path style="opacity:1" fill="#494949" d="M234.5 150.5h-15c-.659-1.638-1.326-3.305-2-5-1.875-.909-3.208-2.243-4-4-.963-.863-.963-1.53 0-2a72.812 72.812 0 0 0 16 5.5 38.47 38.47 0 0 1 5 5.5z"/><path style="opacity:1" fill="#777" d="M261.5 150.5h-6c-1.001-1.289-.834-2.622.5-4a35.524 35.524 0 0 1 5.5 4z"/></svg>